{"glyphs":{"0":{"ha":833,"x_min":24,"x_max":810,"o":"m 490 703 q 417 732 458 732 q 343 703 375 732 q 285 601 307 672 q 263 461 263 529 q 284 326 263 399 q 343 219 306 253 q 417 190 375 190 q 490 219 458 190 q 549 323 526 251 q 571 460 571 394 q 548 599 571 525 q 490 703 525 672 m 810 463 q 672 85 810 219 q 417 -21 565 -21 q 161 85 268 -21 q 24 463 24 219 q 161 842 24 707 q 417 947 268 947 q 672 842 565 947 q 810 463 810 707 z "},"1":{"ha":833,"x_min":193,"x_max":565,"o":"m 325 0 l 325 722 l 193 722 l 193 926 l 565 926 l 565 0 l 325 0 z "},"2":{"ha":833,"x_min":36,"x_max":779,"o":"m 779 204 l 779 0 l 36 0 l 271 246 q 461 481 397 378 q 511 625 511 558 q 483 714 511 683 q 415 742 458 742 q 335 704 364 742 q 301 590 304 665 l 53 590 q 156 847 54 746 q 418 947 256 947 q 679 851 583 947 q 769 624 769 761 q 632 349 769 476 l 476 204 l 779 204 z "},"3":{"ha":833,"x_min":39,"x_max":778,"o":"m 39 317 l 285 317 q 322 224 288 258 q 417 188 356 188 q 511 228 474 188 q 539 304 539 260 q 503 386 539 356 q 414 413 471 413 q 374 407 390 413 l 374 569 q 472 593 435 561 q 503 658 503 619 q 478 725 503 700 q 410 750 453 750 q 343 726 367 750 q 311 644 311 697 l 88 644 q 178 857 94 774 q 422 947 264 947 q 653 865 569 947 q 728 686 728 790 q 700 572 728 622 q 629 501 674 524 q 739 417 697 476 q 778 281 778 360 q 696 78 778 160 q 419 -21 597 -21 q 154 75 257 -21 q 39 317 53 168 z "},"4":{"ha":833,"x_min":15,"x_max":799,"o":"m 686 926 l 686 360 l 799 360 l 799 175 l 686 175 l 686 0 l 464 0 l 464 175 l 15 175 l 15 329 l 372 926 l 686 926 m 246 360 l 464 360 l 464 738 l 246 360 z "},"5":{"ha":833,"x_min":64,"x_max":754,"o":"m 688 926 l 688 722 l 367 722 l 350 619 q 425 626 393 626 q 669 535 581 626 q 754 315 754 450 q 665 83 754 175 q 376 -21 564 -21 q 64 63 196 -21 l 100 288 q 211 213 153 239 q 350 181 279 181 q 471 226 428 181 q 507 321 507 265 q 463 421 507 382 q 296 467 411 467 q 125 428 203 467 l 206 926 l 688 926 z "},"6":{"ha":833,"x_min":26,"x_max":807,"o":"m 371 926 l 644 926 l 381 611 q 510 640 446 640 q 719 551 631 640 q 807 331 807 464 q 711 89 807 185 q 415 -21 601 -21 q 111 92 221 -21 q 26 308 26 179 q 164 654 26 472 l 371 926 m 301 217 q 411 169 347 169 q 518 213 475 169 q 561 318 561 256 q 518 415 561 374 q 411 458 474 458 q 307 418 351 458 q 261 322 261 376 q 301 217 261 260 z "},"7":{"ha":833,"x_min":81,"x_max":876,"o":"m 81 0 l 503 722 l 117 722 l 117 926 l 876 926 l 346 0 l 81 0 z "},"8":{"ha":833,"x_min":63,"x_max":771,"o":"m 581 488 q 700 417 650 467 q 771 253 771 347 q 696 78 771 153 q 415 -21 597 -21 q 139 76 236 -21 q 63 253 63 153 q 82 344 63 297 q 131 419 101 390 q 247 488 176 465 q 164 540 197 507 q 101 688 101 603 q 178 863 101 790 q 425 947 269 947 q 664 858 578 947 q 732 689 732 790 q 675 544 732 601 q 581 488 638 507 m 419 786 q 343 754 372 786 q 315 683 315 724 q 344 617 315 649 q 418 586 374 586 q 486 614 458 586 q 518 685 518 646 q 486 758 518 729 q 419 786 456 786 m 417 390 q 339 358 374 390 q 306 282 306 325 q 338 204 306 236 q 417 171 371 171 q 494 203 463 171 q 528 282 528 236 q 494 358 528 328 q 417 390 461 390 z "},"9":{"ha":833,"x_min":24,"x_max":810,"o":"m 463 0 l 190 0 l 453 313 q 329 283 399 283 q 117 368 203 283 q 24 592 24 460 q 117 831 24 733 q 421 947 231 947 q 718 838 608 947 q 810 608 810 743 q 669 268 810 450 l 463 0 m 424 757 q 317 713 361 757 q 271 607 271 667 q 315 507 271 549 q 424 465 360 465 q 528 504 485 465 q 576 610 576 547 q 532 713 576 668 q 424 757 485 757 z "}," ":{"ha":324,"x_min":0,"x_max":0,"o":""},"!":{"ha":474,"x_min":93,"x_max":381,"o":"m 351 315 l 121 315 l 121 926 l 351 926 l 351 315 m 339 17 q 238 -26 296 -26 q 136 17 179 -26 q 93 118 93 60 q 136 219 93 176 q 238 263 179 263 q 340 218 296 263 q 381 118 381 178 q 339 17 381 58 z "},"\"":{"ha":574,"x_min":57,"x_max":517,"o":"m 257 926 l 222 554 l 90 554 l 57 926 l 257 926 m 517 926 l 483 554 l 350 554 l 317 926 l 517 926 z "},"#":{"ha":833,"x_min":8,"x_max":842,"o":"m 660 415 l 800 415 l 776 253 l 635 253 l 594 0 l 408 0 l 450 253 l 332 253 l 292 0 l 108 0 l 150 253 l 8 253 l 33 415 l 174 415 l 193 531 l 53 531 l 78 692 l 218 692 l 256 926 l 439 926 l 400 692 l 518 692 l 556 926 l 740 926 l 703 692 l 842 692 l 817 531 l 678 531 l 660 415 m 475 415 l 493 531 l 375 531 l 357 415 l 475 415 z "},"$":{"ha":833,"x_min":79,"x_max":754,"o":"m 371 1076 l 510 1076 l 510 924 q 719 853 611 918 l 628 675 q 472 735 550 735 q 389 710 415 735 q 368 664 368 692 q 388 618 368 638 q 451 583 411 597 l 524 558 q 685 471 632 522 q 754 301 754 403 q 676 92 754 174 q 510 1 614 28 l 510 -156 l 371 -156 l 371 -6 q 214 28 292 -4 q 79 107 140 58 l 179 293 q 275 222 229 244 q 401 190 342 190 q 492 222 460 190 q 517 281 517 247 q 489 333 517 313 q 426 361 469 347 l 344 389 q 192 475 238 425 q 132 636 132 536 q 201 832 132 756 q 371 924 267 904 l 371 1076 z "},"%":{"ha":1243,"x_min":46,"x_max":1197,"o":"m 297 482 q 104 556 175 482 q 46 706 46 618 q 103 863 46 801 q 297 936 168 936 q 494 863 424 936 q 553 710 553 801 q 493 556 553 618 q 297 482 422 482 m 293 0 l 829 926 l 950 926 l 413 0 l 293 0 m 300 814 q 224 782 253 814 q 196 710 196 751 q 232 631 196 663 q 300 606 260 606 q 374 635 342 606 q 404 710 404 665 q 371 788 404 756 q 300 814 343 814 m 944 321 q 868 289 897 321 q 840 217 840 258 q 876 138 840 169 q 944 113 904 113 q 1018 142 986 113 q 1049 217 1049 172 q 1015 294 1049 264 q 944 321 988 321 m 942 -11 q 749 63 819 -11 q 690 213 690 125 q 747 369 690 308 q 942 443 813 443 q 1139 369 1068 443 q 1197 217 1197 308 q 1138 63 1197 125 q 942 -11 1067 -11 z "},"&":{"ha":1050,"x_min":56,"x_max":1050,"o":"m 833 486 l 969 354 q 843 219 914 283 l 1050 0 l 750 0 l 669 85 q 358 -21 525 -21 q 131 57 210 -21 q 56 240 56 129 q 125 418 56 349 q 276 508 181 475 q 222 582 246 544 q 190 696 190 635 q 261 865 190 792 q 479 947 342 947 q 694 871 615 947 q 768 697 768 799 q 704 549 768 613 q 596 476 657 501 l 713 354 q 833 486 779 415 m 538 231 l 392 388 q 304 279 304 338 q 332 217 304 240 q 411 190 361 190 q 538 231 474 190 m 418 707 q 443 644 418 681 q 492 589 461 619 q 547 631 521 604 q 576 699 576 664 q 551 763 576 740 q 496 783 528 783 q 443 764 464 783 q 418 707 418 742 z "},"'":{"ha":313,"x_min":57,"x_max":257,"o":"m 257 926 l 222 554 l 90 554 l 57 926 l 257 926 z "},"(":{"ha":492,"x_min":93,"x_max":426,"o":"m 426 -178 l 269 -261 q 133 50 183 -136 q 93 375 93 206 q 144 739 93 569 q 269 1013 186 875 l 426 929 q 324 678 356 800 q 285 382 285 532 q 318 94 285 240 q 426 -178 350 -46 z "},")":{"ha":492,"x_min":65,"x_max":399,"o":"m 222 -261 l 65 -178 q 174 94 142 -46 q 207 382 207 240 q 168 678 207 532 q 65 929 136 800 l 222 1013 q 347 739 306 875 q 399 374 399 571 q 358 50 399 206 q 222 -261 308 -136 z "},"*":{"ha":899,"x_min":196,"x_max":703,"o":"m 243 918 l 386 857 l 372 1013 l 525 1013 l 511 857 l 656 918 l 703 775 l 550 739 l 653 621 l 531 532 l 449 664 l 368 532 l 246 621 l 349 738 l 196 774 l 243 918 z "},"+":{"ha":694,"x_min":46,"x_max":649,"o":"m 46 389 l 46 556 l 257 556 l 257 768 l 438 768 l 438 556 l 649 556 l 649 389 l 438 389 l 438 176 l 257 176 l 257 389 l 46 389 z "},",":{"ha":578,"x_min":-12,"x_max":369,"o":"m -12 -207 l 161 232 l 369 232 l 131 -207 l -12 -207 z "},"-":{"ha":490,"x_min":69,"x_max":421,"o":"m 69 281 l 69 465 l 421 465 l 421 281 l 69 281 z "},".":{"ha":421,"x_min":67,"x_max":354,"o":"m 313 17 q 211 -26 269 -26 q 110 17 153 -26 q 67 118 67 60 q 110 219 67 176 q 211 263 153 263 q 314 218 269 263 q 354 118 354 178 q 313 17 354 58 z "},"/":{"ha":933,"x_min":-42,"x_max":850,"o":"m -42 -261 l 668 1013 l 850 1013 l 139 -261 l -42 -261 z "},":":{"ha":421,"x_min":67,"x_max":354,"o":"m 313 396 q 211 353 269 353 q 110 396 153 353 q 67 497 67 439 q 110 599 67 556 q 211 642 153 642 q 314 597 269 642 q 354 497 354 557 q 313 396 354 438 m 313 22 q 211 -21 269 -21 q 110 22 153 -21 q 67 124 67 65 q 110 225 67 182 q 211 268 153 268 q 314 224 269 268 q 354 124 354 183 q 313 22 354 64 z "},";":{"ha":546,"x_min":-12,"x_max":400,"o":"m -12 -207 l 161 232 l 369 232 l 131 -207 l -12 -207 m 358 396 q 257 353 315 353 q 156 396 199 353 q 113 497 113 439 q 156 599 113 556 q 257 642 199 642 q 360 597 315 642 q 400 497 400 557 q 358 396 400 438 z "},"<":{"ha":694,"x_min":46,"x_max":649,"o":"m 46 540 l 649 846 l 649 668 l 236 464 l 649 258 l 649 81 l 46 389 l 46 540 z "},"=":{"ha":694,"x_min":46,"x_max":649,"o":"m 46 514 l 46 671 l 649 671 l 649 514 l 46 514 m 46 274 l 46 431 l 649 431 l 649 274 l 46 274 z "},">":{"ha":694,"x_min":46,"x_max":649,"o":"m 649 388 l 46 81 l 46 260 l 458 464 l 46 668 l 46 846 l 649 539 l 649 388 z "},"?":{"ha":760,"x_min":46,"x_max":704,"o":"m 482 321 l 256 321 l 256 546 q 303 539 281 539 q 433 585 388 539 q 465 661 465 617 q 442 726 465 703 q 375 753 418 753 q 315 729 336 753 q 290 660 290 704 l 46 660 q 129 857 51 779 q 371 947 219 947 q 617 857 521 947 q 704 658 704 775 q 638 483 704 558 q 482 394 576 415 l 482 321 m 476 22 q 375 -21 433 -21 q 274 22 317 -21 q 231 124 231 65 q 274 225 231 182 q 374 268 317 268 q 478 224 433 268 q 518 124 518 183 q 476 22 518 64 z "},"@":{"ha":1018,"x_min":46,"x_max":972,"o":"m 646 631 l 656 683 l 779 682 l 728 419 q 719 364 719 381 q 750 315 719 315 q 792 333 771 315 q 843 419 822 360 q 864 533 864 478 q 840 650 864 593 q 779 743 817 707 q 672 807 738 783 q 540 831 607 831 q 276 722 385 831 q 167 453 167 613 q 282 179 167 283 q 542 94 376 94 q 792 136 664 94 l 819 25 q 538 -17 685 -17 q 193 107 326 -17 q 85 263 124 171 q 46 454 46 354 q 85 648 46 557 q 189 801 125 739 q 352 905 258 868 q 535 942 446 942 q 716 908 628 942 q 867 807 804 874 q 972 533 972 694 q 874 276 972 379 q 744 214 813 214 q 681 233 713 214 q 636 289 649 251 q 464 201 574 201 q 338 251 389 201 q 268 419 268 318 q 344 618 268 532 q 511 697 418 697 q 646 631 599 697 m 528 568 q 454 535 488 568 q 410 425 410 493 q 438 351 410 381 q 497 328 461 328 q 571 361 538 328 q 615 472 615 408 q 586 546 615 517 q 528 568 561 568 z "},"A":{"ha":986,"x_min":10,"x_max":976,"o":"m 719 0 l 663 156 l 326 156 l 264 0 l 10 0 l 365 926 l 628 926 l 976 0 l 719 0 m 393 339 l 599 339 l 494 639 l 393 339 z "},"B":{"ha":858,"x_min":97,"x_max":803,"o":"m 483 0 l 97 0 l 97 926 l 456 926 q 658 854 593 926 q 715 681 715 792 q 689 567 715 619 q 614 494 661 515 q 740 439 692 486 q 803 269 803 379 q 735 88 803 156 q 483 0 650 0 m 338 742 l 338 561 l 382 561 q 474 590 446 561 q 496 651 496 613 q 474 714 496 689 q 382 742 446 742 l 338 742 m 338 382 l 338 188 l 392 188 q 540 225 508 188 q 560 285 560 247 q 536 351 560 328 q 388 382 506 382 l 338 382 z "},"C":{"ha":818,"x_min":56,"x_max":763,"o":"m 763 310 l 763 25 q 554 -21 636 -21 q 196 118 338 -21 q 92 274 129 185 q 56 456 56 364 q 94 642 56 551 q 196 797 132 732 q 546 942 338 942 q 763 894 646 942 l 763 607 q 553 708 681 708 q 386 647 454 708 q 306 457 306 572 q 381 276 306 347 q 553 213 449 213 q 763 310 674 213 z "},"D":{"ha":965,"x_min":97,"x_max":910,"o":"m 433 0 l 97 0 l 97 926 l 413 926 q 781 799 649 926 q 910 461 910 675 q 789 140 910 261 q 636 40 728 79 q 433 0 544 0 m 338 722 l 338 204 l 386 204 q 589 271 521 204 q 660 461 660 339 q 588 664 660 596 q 396 722 525 722 l 338 722 z "},"E":{"ha":679,"x_min":97,"x_max":624,"o":"m 624 926 l 624 722 l 338 722 l 338 568 l 608 568 l 608 364 l 338 364 l 338 204 l 624 204 l 624 0 l 97 0 l 97 926 l 624 926 z "},"F":{"ha":674,"x_min":97,"x_max":628,"o":"m 628 926 l 628 722 l 338 722 l 338 568 l 601 568 l 601 364 l 338 364 l 338 0 l 97 0 l 97 926 l 628 926 z "},"G":{"ha":1075,"x_min":56,"x_max":1019,"o":"m 542 338 l 542 525 l 1019 525 q 985 283 1019 382 q 871 108 951 183 q 544 -8 746 -8 q 189 129 324 -8 q 56 464 56 263 q 194 811 56 675 q 554 947 331 947 q 804 885 701 947 q 969 694 913 818 l 740 600 q 674 693 718 656 q 544 739 618 739 q 386 675 450 739 q 306 463 306 594 q 379 263 306 340 q 549 192 446 192 q 682 235 631 192 q 739 338 728 272 l 542 338 z "},"H":{"ha":1024,"x_min":97,"x_max":926,"o":"m 338 926 l 338 581 l 685 581 l 685 926 l 926 926 l 926 0 l 685 0 l 685 375 l 338 375 l 338 0 l 97 0 l 97 926 l 338 926 z "},"I":{"ha":435,"x_min":97,"x_max":338,"o":"m 97 926 l 338 926 l 338 0 l 97 0 l 97 926 z "},"J":{"ha":650,"x_min":10,"x_max":553,"o":"m 313 926 l 553 926 l 553 289 q 538 165 553 214 q 474 67 524 117 q 247 -21 386 -21 q 101 21 165 -21 q 10 115 49 56 l 167 276 q 200 203 172 226 q 246 186 221 186 q 288 201 269 186 q 313 294 313 225 l 313 926 z "},"K":{"ha":972,"x_min":97,"x_max":963,"o":"m 338 926 l 338 544 l 632 926 l 929 926 l 561 488 l 963 0 l 651 0 l 338 401 l 338 0 l 97 0 l 97 926 l 338 926 z "},"L":{"ha":653,"x_min":97,"x_max":626,"o":"m 97 926 l 338 926 l 338 204 l 626 204 l 626 0 l 97 0 l 97 926 z "},"M":{"ha":1271,"x_min":56,"x_max":1215,"o":"m 294 0 l 56 0 l 213 926 l 450 926 l 638 432 l 836 926 l 1076 926 l 1215 0 l 975 0 l 907 533 l 683 0 l 588 0 l 374 533 l 294 0 z "},"N":{"ha":1118,"x_min":97,"x_max":1021,"o":"m 338 0 l 97 0 l 97 926 l 338 926 l 781 360 l 781 926 l 1021 926 l 1021 0 l 781 0 l 338 567 l 338 0 z "},"O":{"ha":1133,"x_min":56,"x_max":1078,"o":"m 1078 463 q 932 117 1078 257 q 567 -21 788 -21 q 201 117 346 -21 q 56 463 56 257 q 92 650 56 558 q 201 810 129 742 q 567 947 346 947 q 932 810 788 947 q 1041 650 1004 742 q 1078 463 1078 558 m 567 714 q 379 640 453 714 q 306 458 306 568 q 379 286 306 357 q 567 213 456 213 q 753 285 681 213 q 828 463 828 360 q 753 640 828 568 q 567 714 675 714 z "},"P":{"ha":832,"x_min":97,"x_max":801,"o":"m 489 307 l 338 307 l 338 0 l 97 0 l 97 926 l 481 926 q 715 843 629 926 q 801 618 801 760 q 719 388 801 468 q 489 307 638 307 m 338 732 l 338 501 l 418 501 q 519 531 488 501 q 550 615 550 557 q 522 699 550 671 q 419 732 490 732 l 338 732 z "},"Q":{"ha":1133,"x_min":56,"x_max":1114,"o":"m 954 147 l 1114 -17 l 893 -50 l 815 39 q 572 -21 706 -21 q 186 132 328 -21 q 56 467 56 271 q 94 653 56 564 q 199 807 132 743 q 565 947 343 947 q 765 912 668 947 q 933 808 863 876 q 1076 460 1076 671 q 1039 274 1076 361 q 954 147 1008 200 m 492 369 l 718 399 l 782 329 q 825 465 825 390 q 805 556 825 508 q 750 638 785 603 q 663 694 714 674 q 565 714 613 714 q 382 638 456 714 q 307 451 307 560 q 376 283 307 350 q 564 213 450 213 q 639 222 600 213 l 492 369 z "},"R":{"ha":871,"x_min":97,"x_max":867,"o":"m 97 926 l 472 926 q 699 844 619 926 q 778 636 778 764 q 704 443 778 514 q 576 379 653 394 l 867 0 l 568 0 l 338 356 l 338 0 l 97 0 l 97 926 m 338 740 l 338 511 l 383 511 q 500 549 461 511 q 531 626 531 579 q 499 704 531 675 q 383 740 463 740 l 338 740 z "},"S":{"ha":793,"x_min":56,"x_max":739,"o":"m 56 83 l 158 278 q 371 183 258 183 q 464 215 435 183 q 488 274 488 239 q 461 329 488 307 q 342 378 439 349 l 279 397 q 146 472 186 426 q 93 636 93 529 q 178 860 93 775 q 415 947 265 947 q 701 872 558 947 l 606 685 q 447 747 526 747 q 368 719 397 747 q 344 669 344 696 q 357 628 344 644 q 438 586 376 604 l 511 564 q 679 472 628 528 q 739 307 739 408 q 651 74 739 161 q 378 -21 557 -21 q 196 10 279 -21 q 56 83 125 35 z "},"T":{"ha":654,"x_min":10,"x_max":644,"o":"m 644 722 l 447 722 l 447 0 l 207 0 l 207 722 l 10 722 l 10 926 l 644 926 l 644 722 z "},"U":{"ha":1001,"x_min":97,"x_max":904,"o":"m 97 926 l 338 926 l 338 378 q 385 235 338 281 q 499 190 432 190 q 610 231 565 190 q 648 287 635 253 q 663 341 661 321 q 664 399 664 361 l 664 926 l 904 926 l 904 394 q 900 294 904 333 q 872 198 896 254 q 800 94 847 142 q 494 -21 686 -21 q 188 90 292 -21 q 97 394 97 189 l 97 926 z "},"V":{"ha":971,"x_min":0,"x_max":971,"o":"m 0 926 l 263 926 l 485 363 l 710 926 l 971 926 l 576 0 l 389 0 l 0 926 z "},"W":{"ha":1408,"x_min":0,"x_max":1408,"o":"m 0 926 l 251 926 l 413 328 l 608 926 l 800 926 l 982 328 l 1157 926 l 1408 926 l 1113 0 l 867 0 l 699 536 l 521 0 l 276 0 l 0 926 z "},"X":{"ha":988,"x_min":0,"x_max":988,"o":"m 0 0 l 363 494 l 65 926 l 363 926 l 500 686 l 643 926 l 939 926 l 638 494 l 988 0 l 696 0 l 499 301 l 290 0 l 0 0 z "},"Y":{"ha":889,"x_min":-17,"x_max":906,"o":"m 318 0 l 318 444 l -17 926 l 271 926 l 446 674 l 614 926 l 906 926 l 560 444 l 560 0 l 318 0 z "},"Z":{"ha":876,"x_min":18,"x_max":858,"o":"m 858 926 l 422 204 l 811 204 l 811 0 l 18 0 l 457 722 l 93 722 l 93 926 l 858 926 z "},"[":{"ha":468,"x_min":111,"x_max":413,"o":"m 413 883 l 288 883 l 288 -131 l 413 -131 l 413 -261 l 111 -261 l 111 1013 l 413 1013 l 413 883 z "},"\\":{"ha":933,"x_min":83,"x_max":975,"o":"m 975 -261 l 794 -261 l 83 1013 l 265 1013 l 975 -261 z "},"]":{"ha":468,"x_min":56,"x_max":357,"o":"m 181 883 l 56 883 l 56 1013 l 357 1013 l 357 -261 l 56 -261 l 56 -131 l 181 -131 l 181 883 z "},"^":{"ha":694,"x_min":7,"x_max":689,"o":"m 347 782 l 194 458 l 7 458 l 229 926 l 465 926 l 689 458 l 500 458 l 347 782 z "},"_":{"ha":694,"x_min":0,"x_max":694,"o":"m 0 -247 l 0 -64 l 694 -64 l 694 -247 l 0 -247 z "},"`":{"ha":694,"x_min":133,"x_max":450,"o":"m 347 722 l 133 911 l 275 1013 l 450 799 l 347 722 z "},"a":{"ha":856,"x_min":51,"x_max":779,"o":"m 557 561 l 557 621 l 779 621 l 779 0 l 557 0 l 557 68 q 364 -21 493 -21 q 140 78 233 -21 q 51 306 51 172 q 147 554 51 458 q 371 642 235 642 q 557 561 485 642 m 421 453 q 324 413 365 453 q 279 311 279 369 q 322 210 279 250 q 422 168 367 168 q 522 211 479 168 q 564 311 564 253 q 521 413 564 371 q 421 453 478 453 z "},"b":{"ha":856,"x_min":76,"x_max":804,"o":"m 76 1013 l 299 1013 l 299 561 q 483 642 374 642 q 703 558 615 642 q 804 313 804 463 q 704 65 804 163 q 486 -21 615 -21 q 299 68 368 -21 l 299 0 l 76 0 l 76 1013 m 435 168 q 533 210 492 168 q 576 307 576 253 q 533 413 576 369 q 435 453 493 453 q 333 411 372 453 q 292 311 292 367 q 339 206 292 249 q 435 168 382 168 z "},"c":{"ha":596,"x_min":51,"x_max":546,"o":"m 546 200 l 546 14 q 392 -21 475 -21 q 147 74 244 -21 q 51 306 51 167 q 151 546 51 449 q 401 640 250 640 q 546 606 476 640 l 546 419 q 431 460 489 460 q 322 417 365 460 q 279 310 279 374 q 318 206 279 249 q 432 158 363 158 q 546 200 497 158 z "},"d":{"ha":856,"x_min":51,"x_max":779,"o":"m 779 1013 l 779 0 l 557 0 l 557 68 q 369 -21 488 -21 q 151 65 240 -21 q 51 313 51 163 q 153 558 51 463 q 372 642 240 642 q 557 561 482 642 l 557 1013 l 779 1013 m 421 168 q 517 206 474 168 q 564 311 564 249 q 522 411 564 367 q 421 453 483 453 q 322 413 363 453 q 279 307 279 369 q 322 210 279 253 q 421 168 364 168 z "},"e":{"ha":786,"x_min":50,"x_max":735,"o":"m 735 293 l 735 269 l 272 269 q 311 165 272 204 q 403 135 342 135 q 475 151 444 135 q 514 193 501 167 l 726 193 q 651 65 706 118 q 399 -21 563 -21 q 142 74 236 -21 q 50 308 50 165 q 143 549 50 458 q 397 639 236 639 q 636 554 546 639 q 735 293 735 460 m 279 397 l 531 397 q 494 464 521 438 q 403 497 461 497 q 313 464 346 497 q 279 397 285 433 z "},"f":{"ha":479,"x_min":15,"x_max":472,"o":"m 471 439 l 315 439 l 315 0 l 93 0 l 93 439 l 15 439 l 15 621 l 93 621 l 93 725 q 150 929 93 853 q 365 1028 224 1028 q 472 1007 419 1028 l 472 815 q 403 836 438 836 q 340 813 361 836 q 315 708 315 785 l 315 621 l 471 621 l 471 439 z "},"g":{"ha":851,"x_min":51,"x_max":775,"o":"m 553 621 l 775 621 l 775 39 q 759 -104 775 -44 q 690 -218 743 -164 q 417 -318 592 -318 q 126 -208 235 -318 q 58 -79 69 -149 l 306 -79 q 410 -143 326 -143 q 508 -108 472 -143 q 553 7 553 -67 l 553 69 q 367 -12 475 -12 q 138 75 222 -12 q 51 301 51 164 q 143 544 51 449 q 368 639 233 639 q 553 557 481 639 l 553 621 m 421 454 q 322 413 364 454 q 279 313 279 368 q 322 211 279 254 q 422 171 363 171 q 522 213 481 171 q 564 313 564 254 q 519 414 564 369 q 421 454 479 454 z "},"h":{"ha":813,"x_min":76,"x_max":738,"o":"m 76 0 l 76 1013 l 299 1013 l 299 543 q 368 604 329 582 q 496 635 421 635 q 679 568 613 635 q 727 491 717 531 q 738 394 738 451 l 738 0 l 515 0 l 515 314 q 488 435 515 404 q 417 461 464 461 q 336 435 365 461 q 299 333 299 400 l 299 0 l 76 0 z "},"i":{"ha":374,"x_min":63,"x_max":313,"o":"m 76 621 l 299 621 l 299 0 l 76 0 l 76 621 m 99 791 q 81 809 99 791 q 63 879 63 828 q 99 967 63 931 q 188 1004 136 1004 q 276 967 239 1004 q 313 879 313 931 q 276 791 313 828 q 188 754 239 754 q 99 791 136 754 z "},"j":{"ha":374,"x_min":63,"x_max":313,"o":"m 76 621 l 299 621 l 299 -318 l 76 -318 l 76 621 m 99 791 q 81 809 99 791 q 63 879 63 828 q 99 967 63 931 q 188 1004 136 1004 q 276 967 239 1004 q 313 879 313 931 q 276 791 313 828 q 188 754 239 754 q 99 791 136 754 z "},"k":{"ha":835,"x_min":76,"x_max":833,"o":"m 76 1013 l 299 1013 l 299 397 l 508 621 l 810 621 l 517 335 l 833 0 l 525 0 l 299 254 l 299 0 l 76 0 l 76 1013 z "},"l":{"ha":374,"x_min":76,"x_max":299,"o":"m 76 1013 l 299 1013 l 299 0 l 76 0 l 76 1013 z "},"m":{"ha":1213,"x_min":76,"x_max":1135,"o":"m 76 0 l 76 621 l 299 621 l 299 546 q 485 632 369 632 q 604 604 553 632 q 690 515 660 575 q 775 601 722 572 q 904 632 829 632 q 1076 575 1018 632 q 1135 404 1135 518 l 1135 0 l 913 0 l 913 307 q 881 440 913 410 q 822 461 857 461 q 757 436 783 461 q 717 318 717 397 l 717 0 l 494 0 l 494 307 q 465 440 494 410 q 399 465 442 465 q 338 443 360 465 q 299 307 299 406 l 299 0 l 76 0 z "},"n":{"ha":813,"x_min":76,"x_max":738,"o":"m 76 0 l 76 621 l 299 621 l 299 543 q 496 635 368 635 q 679 568 613 635 q 726 493 715 532 q 738 394 738 454 l 738 0 l 515 0 l 515 314 q 488 435 515 406 q 417 461 463 461 q 335 432 367 461 q 299 333 299 399 l 299 0 l 76 0 z "},"o":{"ha":849,"x_min":51,"x_max":797,"o":"m 425 453 q 325 413 368 453 q 282 311 282 372 q 325 213 282 256 q 425 171 367 171 q 524 213 482 171 q 567 311 567 253 q 524 413 567 369 q 425 453 481 453 m 701 539 q 797 311 797 446 q 701 82 797 176 q 424 -21 597 -21 q 147 82 251 -21 q 51 311 51 176 q 147 539 51 446 q 424 642 253 642 q 701 539 593 642 z "},"p":{"ha":856,"x_min":76,"x_max":804,"o":"m 299 60 l 299 -318 l 76 -318 l 76 621 l 299 621 l 299 553 q 489 642 369 642 q 710 551 619 642 q 804 311 804 457 q 704 65 804 163 q 492 -21 617 -21 q 299 60 376 -21 m 435 453 q 335 411 376 453 q 292 308 292 368 q 335 210 292 253 q 435 168 376 168 q 533 210 494 168 q 576 308 576 253 q 533 411 576 368 q 435 453 494 453 z "},"q":{"ha":856,"x_min":51,"x_max":779,"o":"m 557 -318 l 557 60 q 364 -21 479 -21 q 151 65 239 -21 q 51 311 51 165 q 146 551 51 457 q 367 642 236 642 q 557 553 488 642 l 557 621 l 779 621 l 779 -318 l 557 -318 m 421 453 q 322 411 361 453 q 279 308 279 368 q 322 210 279 253 q 421 168 361 168 q 521 210 479 168 q 564 308 564 253 q 521 411 564 368 q 421 453 479 453 z "},"r":{"ha":568,"x_min":76,"x_max":546,"o":"m 76 0 l 76 621 l 299 621 l 299 519 q 386 606 329 578 q 501 631 432 631 q 508 630 504 631 q 523 628 513 629 q 546 628 533 628 l 546 418 q 450 440 501 440 q 349 407 385 440 q 299 265 299 361 l 299 0 l 76 0 z "},"s":{"ha":617,"x_min":38,"x_max":579,"o":"m 38 51 l 117 206 q 206 160 158 175 q 292 144 249 144 q 349 161 331 144 q 360 190 360 172 q 349 218 360 208 q 290 240 338 229 l 232 254 q 124 308 158 271 q 83 415 83 351 q 142 567 83 506 q 364 642 214 642 q 563 601 467 642 l 488 460 q 371 490 421 490 q 319 478 340 490 q 300 447 300 467 q 326 413 300 424 q 361 403 338 408 q 400 394 385 399 l 440 383 q 532 335 500 367 q 579 211 579 290 q 517 57 579 117 q 288 -21 439 -21 q 38 51 156 -21 z "},"t":{"ha":456,"x_min":29,"x_max":449,"o":"m 449 439 l 322 439 l 322 0 l 100 0 l 100 439 l 29 439 l 29 621 l 100 621 l 100 825 l 322 825 l 322 621 l 449 621 l 449 439 z "},"u":{"ha":819,"x_min":76,"x_max":743,"o":"m 76 621 l 299 621 l 299 274 q 332 183 299 214 q 410 160 358 160 q 489 186 461 160 q 521 274 521 218 l 521 621 l 743 621 l 743 233 q 683 67 743 128 q 415 -21 599 -21 q 135 68 218 -21 q 76 233 76 129 l 76 621 z "},"v":{"ha":796,"x_min":0,"x_max":796,"o":"m 0 621 l 249 621 l 397 303 l 549 621 l 796 621 l 472 0 l 321 0 l 0 621 z "},"w":{"ha":1249,"x_min":0,"x_max":1249,"o":"m 0 621 l 249 621 l 396 293 l 553 621 l 689 621 l 846 283 l 1001 621 l 1249 621 l 924 0 l 774 0 l 618 342 l 469 0 l 319 0 l 0 621 z "},"x":{"ha":906,"x_min":0,"x_max":906,"o":"m 0 0 l 310 338 l 58 621 l 347 621 l 454 493 l 564 621 l 851 621 l 594 338 l 906 0 l 611 0 l 453 185 l 294 0 l 0 0 z "},"y":{"ha":839,"x_min":0,"x_max":839,"o":"m 92 -318 l 300 85 l 0 621 l 258 621 l 424 303 l 585 621 l 839 621 l 340 -318 l 92 -318 z "},"z":{"ha":718,"x_min":28,"x_max":690,"o":"m 690 621 l 400 182 l 660 182 l 660 0 l 28 0 l 321 439 l 71 439 l 71 621 l 690 621 z "},"{":{"ha":694,"x_min":165,"x_max":560,"o":"m 422 771 l 422 553 q 406 447 422 481 q 339 378 385 406 q 406 308 385 350 q 422 203 422 275 l 422 -19 q 442 -81 422 -64 q 532 -99 461 -99 l 560 -99 l 560 -257 l 533 -257 q 483 -259 517 -257 q 433 -261 450 -261 q 341 -246 379 -261 q 284 -212 303 -231 q 255 -161 265 -193 q 243 -110 244 -129 q 242 -60 242 -90 l 242 214 q 165 308 242 297 l 165 461 q 242 556 242 471 l 242 811 q 243 861 242 842 q 255 913 244 881 q 284 963 265 944 q 341 997 303 982 q 433 1013 379 1013 q 483 1010 450 1013 q 533 1008 517 1008 l 560 1008 l 560 850 l 532 850 q 442 833 461 850 q 422 771 422 815 z "},"|":{"ha":694,"x_min":257,"x_max":438,"o":"m 257 -347 l 257 1042 l 438 1042 l 438 -347 l 257 -347 z "},"}":{"ha":694,"x_min":165,"x_max":560,"o":"m 303 553 l 303 771 q 283 833 303 815 q 193 850 264 850 l 165 850 l 165 1008 l 192 1008 q 242 1010 208 1008 q 292 1013 275 1013 q 371 1003 336 1013 q 425 976 406 994 q 458 939 444 957 q 476 894 471 921 q 482 851 481 868 q 483 811 483 835 l 483 556 q 560 461 483 471 l 560 308 q 483 214 483 297 l 483 -60 q 482 -100 483 -83 q 476 -143 481 -117 q 458 -187 471 -169 q 425 -224 444 -206 q 371 -252 406 -243 q 292 -261 336 -261 q 242 -259 275 -261 q 192 -257 208 -257 l 165 -257 l 165 -99 l 193 -99 q 283 -81 264 -99 q 303 -19 303 -64 l 303 203 q 319 308 303 275 q 386 378 340 350 q 319 447 340 406 q 303 553 303 481 z "},"~":{"ha":694,"x_min":8,"x_max":686,"o":"m 357 313 l 308 329 q 207 356 233 356 q 147 332 172 356 q 107 271 125 311 l 8 336 l 19 360 q 93 481 64 453 q 215 529 142 529 q 343 500 261 529 l 393 482 q 482 461 447 461 q 546 482 521 461 q 583 532 568 501 l 686 472 l 679 457 q 606 343 650 390 q 474 286 550 286 q 357 313 440 286 z "},"Ё":{"ha":679,"x_min":97,"x_max":624,"o":"m 624 926 l 624 722 l 338 722 l 338 568 l 608 568 l 608 364 l 338 364 l 338 204 l 624 204 l 624 0 l 97 0 l 97 926 l 624 926 m 427 1028 q 411 1045 427 1028 q 394 1107 394 1061 q 427 1185 394 1153 q 506 1218 460 1218 q 584 1185 551 1218 q 617 1107 617 1153 q 584 1028 617 1061 q 506 996 551 996 q 427 1028 460 996 m 138 1028 q 122 1045 138 1028 q 106 1107 106 1061 q 138 1185 106 1153 q 217 1218 171 1218 q 295 1185 263 1218 q 328 1107 328 1153 q 295 1028 328 1061 q 217 996 263 996 q 138 1028 171 996 z "},"Ђ":{"ha":1019,"x_min":14,"x_max":961,"o":"m 222 0 l 222 722 l 14 722 l 14 926 l 760 926 l 760 722 l 464 722 l 464 539 q 640 571 554 571 q 832 529 758 571 q 961 282 961 457 q 849 43 961 117 q 632 -8 769 -8 q 553 0 603 -8 l 553 183 q 614 175 582 175 q 681 194 656 175 q 711 275 711 218 q 665 357 711 333 q 589 371 639 371 q 464 339 528 371 l 464 0 l 222 0 z "},"Ѓ":{"ha":685,"x_min":97,"x_max":639,"o":"m 639 926 l 639 722 l 338 722 l 338 0 l 97 0 l 97 926 l 639 926 m 435 1290 l 575 1189 l 361 1000 l 258 1076 l 435 1290 z "},"Є":{"ha":858,"x_min":56,"x_max":789,"o":"m 789 289 l 789 49 q 685 3 729 17 q 524 -21 610 -21 q 194 106 319 -21 q 56 464 56 247 q 185 815 56 682 q 517 946 310 946 q 789 878 651 946 l 789 626 q 696 700 751 668 q 549 735 631 735 q 386 686 446 735 q 315 565 331 640 l 660 565 l 660 379 l 308 379 q 385 244 325 296 q 549 193 447 193 q 696 224 633 193 q 789 289 749 249 z "},"Ѕ":{"ha":793,"x_min":56,"x_max":739,"o":"m 56 83 l 158 278 q 371 183 258 183 q 464 215 435 183 q 488 274 488 239 q 461 329 488 307 q 342 378 439 349 l 279 397 q 146 472 186 426 q 93 636 93 529 q 178 860 93 775 q 415 947 265 947 q 701 872 558 947 l 606 685 q 447 747 526 747 q 368 719 397 747 q 344 669 344 696 q 357 628 344 644 q 438 586 376 604 l 511 564 q 679 472 628 528 q 739 307 739 408 q 651 74 739 161 q 378 -21 557 -21 q 196 10 279 -21 q 56 83 125 35 z "},"І":{"ha":435,"x_min":97,"x_max":338,"o":"m 97 926 l 338 926 l 338 0 l 97 0 l 97 926 z "},"Ї":{"ha":494,"x_min":19,"x_max":475,"o":"m 126 926 l 367 926 l 367 0 l 126 0 l 126 926 m 307 1224 q 371 1246 333 1246 q 435 1224 408 1246 q 475 1133 475 1189 q 435 1043 475 1078 q 371 1021 408 1021 q 307 1043 333 1021 q 267 1133 267 1078 q 307 1224 267 1189 m 60 1224 q 124 1246 86 1246 q 188 1224 161 1246 q 228 1133 228 1189 q 188 1043 228 1078 q 124 1021 161 1021 q 60 1043 86 1021 q 19 1133 19 1078 q 60 1224 19 1189 z "},"Ј":{"ha":650,"x_min":10,"x_max":553,"o":"m 313 926 l 553 926 l 553 289 q 538 165 553 214 q 474 67 524 117 q 247 -21 386 -21 q 101 21 165 -21 q 10 115 49 56 l 167 276 q 200 203 172 226 q 246 186 221 186 q 288 201 269 186 q 313 294 313 225 l 313 926 z "},"Љ":{"ha":1417,"x_min":3,"x_max":1361,"o":"m 997 0 l 653 0 l 653 724 l 426 724 l 426 386 q 329 67 426 164 q 113 -12 247 -12 q 3 0 57 -12 l 3 222 q 58 213 32 213 q 139 240 108 213 q 188 415 188 285 l 188 926 l 894 926 l 894 565 l 1011 565 q 1288 479 1200 565 q 1361 283 1361 406 q 1290 89 1361 160 q 997 0 1201 0 m 894 186 l 988 186 q 1092 214 1064 186 q 1117 283 1117 239 q 1090 351 1117 328 q 988 379 1061 379 l 894 379 l 894 186 z "},"Њ":{"ha":1431,"x_min":97,"x_max":1375,"o":"m 908 581 l 1025 581 q 1301 494 1214 581 q 1375 293 1375 422 q 1304 89 1375 161 q 1011 0 1217 0 l 667 0 l 667 375 l 338 375 l 338 0 l 97 0 l 97 926 l 338 926 l 338 581 l 667 581 l 667 926 l 908 926 l 908 581 m 908 186 l 1001 186 q 1106 214 1078 186 q 1131 296 1131 239 q 1104 367 1131 343 q 1001 394 1075 394 l 908 394 l 908 186 z "},"Ћ":{"ha":1069,"x_min":14,"x_max":1011,"o":"m 222 0 l 222 722 l 14 722 l 14 926 l 760 926 l 760 722 l 464 722 l 464 560 q 663 578 553 578 q 943 500 863 578 q 991 426 975 469 q 1009 357 1007 382 q 1011 290 1011 332 l 1011 0 l 769 0 l 769 233 q 742 340 769 310 q 604 378 707 378 q 464 365 543 378 l 464 0 l 222 0 z "},"Ќ":{"ha":964,"x_min":97,"x_max":963,"o":"m 338 926 l 338 544 l 632 926 l 929 926 l 561 488 l 963 0 l 651 0 l 338 401 l 338 0 l 97 0 l 97 926 l 338 926 m 546 1290 l 686 1189 l 472 1000 l 369 1076 l 546 1290 z "},"Ў":{"ha":865,"x_min":0,"x_max":857,"o":"m 0 926 l 269 926 l 446 514 l 600 926 l 857 926 l 440 0 l 186 0 l 315 260 l 0 926 m 574 1243 l 735 1182 q 621 1047 701 1090 q 443 1011 556 1011 q 268 1047 335 1011 q 154 1182 188 1090 l 315 1243 q 360 1178 329 1200 q 444 1156 390 1156 q 529 1178 497 1156 q 574 1243 560 1200 z "},"Џ":{"ha":997,"x_min":97,"x_max":900,"o":"m 97 0 l 97 926 l 339 926 l 339 203 l 658 203 l 658 926 l 900 926 l 900 0 l 607 0 l 607 -231 l 390 -231 l 390 0 l 97 0 z "},"А":{"ha":986,"x_min":10,"x_max":976,"o":"m 719 0 l 663 156 l 326 156 l 264 0 l 10 0 l 365 926 l 628 926 l 976 0 l 719 0 m 393 339 l 599 339 l 494 639 l 393 339 z "},"Б":{"ha":853,"x_min":97,"x_max":797,"o":"m 97 0 l 97 926 l 700 926 l 700 722 l 339 722 l 339 563 l 433 563 q 726 472 639 563 q 797 281 797 397 q 721 83 797 160 q 425 0 636 0 l 97 0 m 339 188 l 422 188 q 529 219 499 188 q 553 285 553 246 q 525 354 553 329 q 422 379 496 379 l 339 379 l 339 188 z "},"В":{"ha":858,"x_min":97,"x_max":803,"o":"m 483 0 l 97 0 l 97 926 l 456 926 q 658 854 593 926 q 715 681 715 792 q 689 567 715 619 q 614 494 661 515 q 740 439 692 486 q 803 269 803 379 q 735 88 803 156 q 483 0 650 0 m 338 742 l 338 561 l 382 561 q 474 590 446 561 q 496 651 496 613 q 474 714 496 689 q 382 742 446 742 l 338 742 m 338 382 l 338 188 l 392 188 q 540 225 508 188 q 560 285 560 247 q 536 351 560 328 q 388 382 506 382 l 338 382 z "},"Г":{"ha":685,"x_min":97,"x_max":639,"o":"m 639 926 l 639 722 l 338 722 l 338 0 l 97 0 l 97 926 l 639 926 z "},"Д":{"ha":1032,"x_min":7,"x_max":1004,"o":"m 193 926 l 893 926 l 893 186 l 1004 186 l 1004 -208 l 788 -208 l 788 0 l 224 0 l 224 -208 l 7 -208 l 7 186 q 113 242 68 196 q 177 363 161 292 q 193 546 193 435 l 193 926 m 426 740 l 426 522 q 404 328 426 407 q 324 186 381 244 l 651 186 l 651 740 l 426 740 z "},"Е":{"ha":679,"x_min":97,"x_max":624,"o":"m 624 926 l 624 722 l 338 722 l 338 568 l 608 568 l 608 364 l 338 364 l 338 204 l 624 204 l 624 0 l 97 0 l 97 926 l 624 926 z "},"Ж":{"ha":1347,"x_min":1,"x_max":1346,"o":"m 554 0 l 554 407 l 304 0 l 1 0 l 339 472 l 29 926 l 307 926 l 554 524 l 554 926 l 793 926 l 793 524 l 1040 926 l 1318 926 l 1008 472 l 1346 0 l 1043 0 l 793 407 l 793 0 l 554 0 z "},"З":{"ha":829,"x_min":21,"x_max":774,"o":"m 182 671 l 89 847 q 217 913 143 885 q 413 947 311 947 q 661 864 575 947 q 731 689 731 799 q 690 556 731 613 q 604 482 657 507 l 604 478 q 707 419 665 458 q 774 264 774 356 q 658 43 774 122 q 397 -21 567 -21 q 174 19 271 -21 q 21 117 90 54 l 143 292 q 240 214 185 244 q 365 183 300 183 q 467 207 429 183 q 510 283 510 233 q 468 353 510 326 q 354 375 435 375 l 264 375 l 264 561 l 324 561 q 468 600 429 561 q 492 658 492 624 q 456 724 492 697 q 367 747 422 747 q 258 722 308 747 q 182 671 222 704 z "},"И":{"ha":1029,"x_min":97,"x_max":932,"o":"m 97 926 l 339 926 l 339 343 l 686 926 l 932 926 l 932 0 l 690 0 l 690 583 l 343 0 l 97 0 l 97 926 z "},"Й":{"ha":1029,"x_min":97,"x_max":932,"o":"m 97 926 l 339 926 l 339 343 l 686 926 l 932 926 l 932 0 l 690 0 l 690 583 l 343 0 l 97 0 l 97 926 m 638 1243 l 799 1182 q 685 1047 765 1090 q 507 1011 619 1011 q 332 1047 399 1011 q 218 1182 251 1090 l 379 1243 q 424 1178 393 1200 q 508 1156 454 1156 q 593 1178 561 1156 q 638 1243 624 1200 z "},"К":{"ha":964,"x_min":97,"x_max":963,"o":"m 338 926 l 338 544 l 632 926 l 929 926 l 561 488 l 963 0 l 651 0 l 338 401 l 338 0 l 97 0 l 97 926 l 338 926 z "},"Л":{"ha":999,"x_min":3,"x_max":901,"o":"m 188 926 l 901 926 l 901 0 l 660 0 l 660 724 l 426 724 l 426 386 q 329 67 426 164 q 113 -12 247 -12 q 3 0 57 -12 l 3 222 q 58 213 32 213 q 139 240 108 213 q 188 415 188 285 l 188 926 z "},"М":{"ha":1271,"x_min":56,"x_max":1215,"o":"m 294 0 l 56 0 l 213 926 l 450 926 l 638 432 l 836 926 l 1076 926 l 1215 0 l 975 0 l 907 533 l 683 0 l 588 0 l 374 533 l 294 0 z "},"Н":{"ha":1024,"x_min":97,"x_max":926,"o":"m 338 926 l 338 581 l 685 581 l 685 926 l 926 926 l 926 0 l 685 0 l 685 375 l 338 375 l 338 0 l 97 0 l 97 926 l 338 926 z "},"О":{"ha":1133,"x_min":56,"x_max":1078,"o":"m 1078 463 q 932 117 1078 257 q 567 -21 788 -21 q 201 117 346 -21 q 56 463 56 257 q 92 650 56 558 q 201 810 129 742 q 567 947 346 947 q 932 810 788 947 q 1041 650 1004 742 q 1078 463 1078 558 m 567 714 q 379 640 453 714 q 306 458 306 568 q 379 286 306 357 q 567 213 456 213 q 753 285 681 213 q 828 463 828 360 q 753 640 828 568 q 567 714 675 714 z "},"П":{"ha":1008,"x_min":97,"x_max":911,"o":"m 911 0 l 669 0 l 669 721 l 338 721 l 338 0 l 97 0 l 97 926 l 911 926 l 911 0 z "},"Р":{"ha":832,"x_min":97,"x_max":801,"o":"m 489 307 l 338 307 l 338 0 l 97 0 l 97 926 l 481 926 q 715 843 629 926 q 801 618 801 760 q 719 388 801 468 q 489 307 638 307 m 338 732 l 338 501 l 418 501 q 519 531 488 501 q 550 615 550 557 q 522 699 550 671 q 419 732 490 732 l 338 732 z "},"С":{"ha":818,"x_min":56,"x_max":763,"o":"m 763 310 l 763 25 q 554 -21 636 -21 q 196 118 338 -21 q 92 274 129 185 q 56 456 56 364 q 94 642 56 551 q 196 797 132 732 q 546 942 338 942 q 763 894 647 942 l 763 607 q 553 708 681 708 q 386 647 454 708 q 306 457 306 572 q 381 276 306 347 q 553 213 449 213 q 763 310 674 213 z "},"Т":{"ha":654,"x_min":10,"x_max":644,"o":"m 644 722 l 447 722 l 447 0 l 207 0 l 207 722 l 10 722 l 10 926 l 644 926 l 644 722 z "},"У":{"ha":865,"x_min":0,"x_max":857,"o":"m 0 926 l 269 926 l 446 514 l 600 926 l 857 926 l 440 0 l 186 0 l 315 260 l 0 926 z "},"Ф":{"ha":1208,"x_min":56,"x_max":1153,"o":"m 483 0 l 483 129 q 154 235 263 129 q 56 496 56 333 q 156 765 56 669 q 483 871 265 871 l 483 1006 l 725 1006 l 725 871 q 1053 765 943 871 q 1153 496 1153 669 q 1054 235 1153 333 q 725 129 946 129 l 725 0 l 483 0 m 707 685 l 707 315 l 719 315 q 857 360 811 315 q 911 503 911 411 q 857 642 911 593 q 718 685 810 685 l 707 685 m 501 685 l 490 685 q 351 642 399 685 q 297 503 297 593 q 351 360 297 411 q 489 315 397 315 l 501 315 l 501 685 z "},"Х":{"ha":988,"x_min":0,"x_max":988,"o":"m 0 0 l 363 494 l 65 926 l 363 926 l 500 686 l 643 926 l 939 926 l 638 494 l 988 0 l 696 0 l 499 301 l 290 0 l 0 0 z "},"Ц":{"ha":1038,"x_min":97,"x_max":1017,"o":"m 97 0 l 97 926 l 339 926 l 339 203 l 658 203 l 658 926 l 900 926 l 900 203 l 1017 203 l 1017 -208 l 800 -208 l 800 0 l 97 0 z "},"Ч":{"ha":917,"x_min":58,"x_max":819,"o":"m 578 0 l 578 364 q 385 350 486 350 q 132 419 206 350 q 58 639 58 489 l 58 926 l 300 926 l 300 675 q 328 579 300 607 q 442 550 357 550 q 578 560 515 550 l 578 926 l 819 926 l 819 0 l 578 0 z "},"Ш":{"ha":1386,"x_min":97,"x_max":1289,"o":"m 97 0 l 97 926 l 339 926 l 339 203 l 572 203 l 572 926 l 814 926 l 814 203 l 1047 203 l 1047 926 l 1289 926 l 1289 0 l 97 0 z "},"Щ":{"ha":1440,"x_min":97,"x_max":1419,"o":"m 1203 0 l 97 0 l 97 926 l 339 926 l 339 203 l 572 203 l 572 926 l 814 926 l 814 203 l 1047 203 l 1047 926 l 1289 926 l 1289 203 l 1419 203 l 1419 -208 l 1203 -208 l 1203 0 z "},"Ъ":{"ha":968,"x_min":14,"x_max":913,"o":"m 204 0 l 204 724 l 14 724 l 14 926 l 446 926 l 446 565 l 563 565 q 839 479 751 565 q 913 283 913 406 q 842 89 913 160 q 549 0 753 0 l 204 0 m 446 186 l 539 186 q 643 214 615 186 q 668 283 668 239 q 642 351 668 328 q 539 379 613 379 l 446 379 l 446 186 z "},"Ы":{"ha":1221,"x_min":97,"x_max":1124,"o":"m 882 0 l 882 926 l 1124 926 l 1124 0 l 882 0 m 97 0 l 97 926 l 339 926 l 339 565 l 456 565 q 732 479 644 565 q 806 283 806 407 q 736 89 806 160 q 442 0 649 0 l 97 0 m 339 186 l 432 186 q 536 214 508 186 q 561 283 561 239 q 535 351 561 328 q 432 379 506 379 l 339 379 l 339 186 z "},"Ь":{"ha":861,"x_min":97,"x_max":806,"o":"m 97 0 l 97 926 l 339 926 l 339 565 l 456 565 q 732 479 644 565 q 806 283 806 406 q 735 89 806 160 q 442 0 646 0 l 97 0 m 339 186 l 432 186 q 536 214 508 186 q 561 283 561 239 q 535 351 561 328 q 432 379 506 379 l 339 379 l 339 186 z "},"Э":{"ha":858,"x_min":69,"x_max":803,"o":"m 69 49 l 69 289 q 163 224 110 249 q 310 193 225 193 q 474 244 413 193 q 551 379 535 296 l 199 379 l 199 565 l 543 565 q 472 686 528 640 q 310 735 413 735 q 163 700 228 735 q 69 626 107 668 l 69 878 q 342 946 207 946 q 674 815 549 946 q 803 467 803 682 q 664 106 803 249 q 333 -21 542 -21 q 174 3 249 -21 q 69 49 129 17 z "},"Ю":{"ha":1508,"x_min":97,"x_max":1453,"o":"m 338 568 l 457 568 q 608 833 486 729 q 939 947 742 947 q 1304 811 1163 947 q 1413 655 1374 746 q 1453 464 1453 564 q 1413 274 1453 365 q 1304 115 1374 182 q 939 -21 1163 -21 q 606 99 739 -21 q 457 382 478 214 l 338 382 l 338 0 l 97 0 l 97 926 l 338 926 l 338 568 m 947 714 q 763 638 839 714 q 689 463 689 564 q 765 285 689 357 q 946 213 839 213 q 1125 286 1049 213 q 1201 467 1201 363 q 1125 642 1201 568 q 947 714 1051 714 z "},"Я":{"ha":858,"x_min":19,"x_max":761,"o":"m 19 0 l 278 349 q 140 421 197 363 q 68 615 68 494 q 144 833 68 753 q 404 926 232 926 l 761 926 l 761 0 l 519 0 l 519 315 l 496 315 l 297 0 l 19 0 m 519 501 l 519 724 l 451 724 q 347 692 382 724 q 315 613 315 663 q 344 533 315 563 q 451 501 378 501 l 519 501 z "},"а":{"ha":856,"x_min":51,"x_max":779,"o":"m 557 561 l 557 621 l 779 621 l 779 0 l 557 0 l 557 68 q 364 -21 493 -21 q 140 78 233 -21 q 51 306 51 172 q 147 554 51 458 q 371 642 235 642 q 557 561 485 642 m 421 453 q 324 413 365 453 q 279 311 279 369 q 322 210 279 250 q 422 168 367 168 q 522 211 479 168 q 564 311 564 253 q 521 413 564 371 q 421 453 478 453 z "},"б":{"ha":850,"x_min":51,"x_max":799,"o":"m 246 554 l 256 554 q 465 639 328 639 q 711 551 617 639 q 799 326 799 469 q 703 81 799 176 q 425 -21 601 -21 q 157 78 253 -21 q 51 404 51 186 q 185 822 51 683 q 288 894 231 868 q 438 939 346 921 l 478 947 q 572 982 551 961 q 590 1028 590 1003 l 783 1028 q 726 893 774 956 q 599 804 682 835 q 438 757 568 793 q 301 689 342 731 q 246 554 253 636 m 425 456 q 329 419 369 456 q 282 314 282 378 q 329 207 282 250 q 425 171 369 171 q 521 207 482 171 q 568 319 568 251 q 521 419 568 378 q 425 456 479 456 z "},"в":{"ha":735,"x_min":76,"x_max":697,"o":"m 76 621 l 457 621 q 615 576 568 621 q 658 468 658 536 q 632 375 658 414 q 564 324 610 343 l 564 321 q 653 278 618 310 q 697 171 697 238 q 653 51 697 96 q 501 0 601 0 l 76 0 l 76 621 m 299 374 l 382 374 q 439 388 422 374 q 456 432 456 403 q 440 471 456 458 q 381 486 424 486 l 299 486 l 299 374 m 299 135 l 397 135 q 451 153 432 135 q 469 197 469 171 q 453 243 469 226 q 397 258 438 258 l 299 258 l 299 135 z "},"г":{"ha":532,"x_min":76,"x_max":513,"o":"m 76 0 l 76 621 l 513 621 l 513 439 l 299 439 l 299 0 l 76 0 z "},"д":{"ha":828,"x_min":6,"x_max":807,"o":"m 146 621 l 717 621 l 717 156 l 807 156 l 807 -181 l 613 -181 l 613 0 l 200 0 l 200 -181 l 6 -181 l 6 156 q 90 193 57 160 q 146 371 146 247 l 146 621 m 500 156 l 500 465 l 351 465 l 351 360 q 333 242 351 290 q 275 156 313 186 l 500 156 z "},"е":{"ha":786,"x_min":50,"x_max":735,"o":"m 735 293 l 735 269 l 272 269 q 311 165 272 204 q 403 135 342 135 q 475 151 444 135 q 514 193 501 167 l 726 193 q 651 65 706 118 q 399 -21 563 -21 q 142 74 236 -21 q 50 308 50 165 q 143 549 50 458 q 397 639 236 639 q 636 554 546 639 q 735 293 735 460 m 279 397 l 531 397 q 494 464 521 438 q 403 497 461 497 q 313 464 346 497 q 279 397 285 433 z "},"ж":{"ha":1136,"x_min":1,"x_max":1135,"o":"m 458 0 l 458 269 l 274 0 l 1 0 l 254 324 l 39 621 l 292 621 l 458 361 l 458 621 l 678 621 l 678 361 l 844 621 l 1097 621 l 882 324 l 1135 0 l 863 0 l 678 269 l 678 0 l 458 0 z "},"з":{"ha":644,"x_min":25,"x_max":606,"o":"m 121 429 l 47 574 q 150 617 96 600 q 308 642 232 642 q 531 572 461 642 q 575 463 575 528 q 544 369 575 406 q 482 324 519 340 l 482 321 q 568 278 533 313 q 606 182 606 240 q 549 47 606 101 q 310 -21 479 -21 q 149 3 224 -21 q 25 60 85 22 l 107 214 q 185 167 144 185 q 282 147 231 147 q 349 158 324 147 q 378 200 378 172 q 353 235 378 224 q 281 244 332 244 l 204 244 l 204 389 l 267 389 q 336 399 310 389 q 365 435 365 408 q 339 471 365 460 q 275 482 317 482 q 190 465 233 482 q 121 429 151 451 z "},"и":{"ha":814,"x_min":76,"x_max":738,"o":"m 76 621 l 299 621 l 299 301 l 544 621 l 738 621 l 738 0 l 515 0 l 515 328 l 272 0 l 76 0 l 76 621 z "},"й":{"ha":814,"x_min":76,"x_max":738,"o":"m 76 621 l 299 621 l 299 301 l 544 621 l 738 621 l 738 0 l 515 0 l 515 328 l 272 0 l 76 0 l 76 621 m 514 939 l 663 886 q 568 758 640 803 q 407 719 507 719 q 246 758 307 719 q 151 886 174 803 l 300 939 q 332 881 311 901 q 407 853 358 853 q 482 881 456 853 q 514 939 503 901 z "},"к":{"ha":790,"x_min":76,"x_max":789,"o":"m 76 0 l 76 621 l 299 621 l 299 367 l 486 621 l 765 621 l 508 329 l 789 0 l 501 0 l 299 275 l 299 0 l 76 0 z "},"л":{"ha":800,"x_min":14,"x_max":724,"o":"m 724 621 l 724 0 l 501 0 l 501 439 l 343 439 l 343 261 q 278 51 343 119 q 103 -8 219 -8 q 14 0 60 -8 l 14 161 q 101 185 72 154 q 129 285 129 214 l 129 621 l 724 621 z "},"м":{"ha":944,"x_min":28,"x_max":917,"o":"m 28 0 l 126 621 l 319 621 l 472 285 l 625 621 l 818 621 l 917 0 l 708 0 l 658 324 l 513 0 l 432 0 l 286 324 l 236 0 l 28 0 z "},"н":{"ha":804,"x_min":76,"x_max":728,"o":"m 76 0 l 76 621 l 299 621 l 299 411 l 506 411 l 506 621 l 728 621 l 728 0 l 506 0 l 506 236 l 299 236 l 299 0 l 76 0 z "},"о":{"ha":849,"x_min":51,"x_max":797,"o":"m 425 453 q 325 413 368 453 q 282 311 282 372 q 325 213 282 256 q 425 171 367 171 q 524 213 482 171 q 567 311 567 253 q 524 413 567 369 q 425 453 481 453 m 701 539 q 797 311 797 446 q 701 82 797 176 q 424 -21 597 -21 q 147 82 251 -21 q 51 311 51 176 q 147 539 51 446 q 424 642 253 642 q 701 539 593 642 z "},"п":{"ha":796,"x_min":76,"x_max":719,"o":"m 76 0 l 76 621 l 719 621 l 719 0 l 497 0 l 497 446 l 299 446 l 299 0 l 76 0 z "},"р":{"ha":856,"x_min":76,"x_max":804,"o":"m 299 60 l 299 -318 l 76 -318 l 76 621 l 299 621 l 299 553 q 489 642 369 642 q 710 551 619 642 q 804 311 804 457 q 704 65 804 163 q 492 -21 617 -21 q 299 60 376 -21 m 435 453 q 335 411 376 453 q 292 308 292 368 q 335 210 292 253 q 435 168 376 168 q 533 210 494 168 q 576 308 576 253 q 533 411 576 368 q 435 453 494 453 z "},"с":{"ha":596,"x_min":51,"x_max":546,"o":"m 546 200 l 546 14 q 392 -21 475 -21 q 147 74 244 -21 q 51 306 51 167 q 151 546 51 449 q 401 640 250 640 q 546 606 476 640 l 546 419 q 431 460 489 460 q 322 417 365 460 q 279 310 279 374 q 318 206 279 249 q 432 158 363 158 q 546 200 497 158 z "},"т":{"ha":572,"x_min":14,"x_max":558,"o":"m 175 0 l 175 439 l 14 439 l 14 621 l 558 621 l 558 439 l 397 439 l 397 0 l 175 0 z "},"у":{"ha":839,"x_min":0,"x_max":839,"o":"m 92 -318 l 300 85 l 0 621 l 258 621 l 424 303 l 585 621 l 839 621 l 340 -318 l 92 -318 z "},"ф":{"ha":1033,"x_min":51,"x_max":982,"o":"m 628 -318 l 406 -318 l 406 -10 l 401 -10 q 138 85 232 -10 q 51 310 51 169 q 143 542 51 457 q 401 631 240 631 l 406 631 l 406 926 l 628 926 l 628 631 l 632 631 q 890 542 793 631 q 982 310 982 457 q 896 85 982 169 q 632 -10 801 -10 l 628 -10 l 628 -318 m 613 471 l 613 150 l 615 150 q 719 186 681 150 q 768 311 768 229 q 721 433 768 388 q 617 471 682 471 l 613 471 m 421 471 l 417 471 q 313 433 351 471 q 265 311 265 388 q 314 186 265 229 q 418 150 353 150 l 421 150 l 421 471 z "},"х":{"ha":906,"x_min":0,"x_max":906,"o":"m 0 0 l 310 338 l 58 621 l 347 621 l 454 493 l 564 621 l 851 621 l 594 338 l 906 0 l 611 0 l 453 185 l 294 0 l 0 0 z "},"ц":{"ha":828,"x_min":76,"x_max":814,"o":"m 76 0 l 76 621 l 299 621 l 299 175 l 489 175 l 489 621 l 711 621 l 711 175 l 814 175 l 814 -181 l 619 -181 l 619 0 l 76 0 z "},"ч":{"ha":747,"x_min":58,"x_max":671,"o":"m 449 0 l 449 203 q 313 188 388 188 q 114 249 174 188 q 58 425 58 304 l 58 621 l 272 621 l 272 440 q 296 369 272 389 q 371 353 315 353 q 449 363 417 353 l 449 621 l 671 621 l 671 0 l 449 0 z "},"ш":{"ha":1153,"x_min":76,"x_max":1076,"o":"m 76 0 l 76 621 l 299 621 l 299 175 l 465 175 l 465 621 l 688 621 l 688 175 l 854 175 l 854 621 l 1076 621 l 1076 0 l 76 0 z "},"щ":{"ha":1208,"x_min":76,"x_max":1196,"o":"m 1001 0 l 76 0 l 76 621 l 299 621 l 299 175 l 467 175 l 467 621 l 689 621 l 689 175 l 857 175 l 857 621 l 1079 621 l 1079 175 l 1196 175 l 1196 -181 l 1001 -181 l 1001 0 z "},"ъ":{"ha":810,"x_min":14,"x_max":775,"o":"m 396 414 l 551 414 q 719 358 663 414 q 775 210 775 304 q 722 61 775 115 q 551 0 661 0 l 174 0 l 174 439 l 14 439 l 14 621 l 396 621 l 396 414 m 396 144 l 479 144 q 539 164 519 144 q 553 208 553 178 q 538 253 553 239 q 476 269 518 269 l 396 269 l 396 144 z "},"ы":{"ha":1031,"x_min":76,"x_max":954,"o":"m 732 0 l 732 621 l 954 621 l 954 0 l 732 0 m 299 414 l 450 414 q 617 358 558 414 q 672 210 672 304 q 619 61 672 114 q 450 0 558 0 l 76 0 l 76 621 l 299 621 l 299 414 m 299 144 l 382 144 q 442 164 422 144 q 457 208 457 179 q 440 253 457 239 q 379 269 419 269 l 299 269 l 299 144 z "},"ь":{"ha":713,"x_min":76,"x_max":678,"o":"m 299 414 l 454 414 q 622 358 564 414 q 678 210 678 304 q 625 61 678 114 q 454 0 564 0 l 76 0 l 76 621 l 299 621 l 299 414 m 299 144 l 382 144 q 440 164 422 144 q 456 208 456 179 q 439 253 456 239 q 379 269 418 269 l 299 269 l 299 144 z "},"э":{"ha":661,"x_min":64,"x_max":610,"o":"m 64 21 l 64 207 q 231 147 132 147 q 338 171 299 147 q 390 242 378 194 l 151 242 l 151 386 l 390 386 q 332 454 372 433 q 235 475 293 475 q 136 456 181 475 q 64 407 101 442 l 64 590 q 272 640 156 640 q 518 553 428 640 q 610 314 610 464 q 514 64 610 154 q 264 -21 425 -21 q 64 21 163 -21 z "},"ю":{"ha":1131,"x_min":76,"x_max":1079,"o":"m 707 453 q 607 413 647 453 q 564 311 564 369 q 607 211 564 254 q 707 171 646 171 q 806 211 765 171 q 847 314 847 253 q 808 413 847 369 q 707 453 771 453 m 299 411 l 364 411 q 482 574 396 510 q 706 642 575 642 q 983 539 876 642 q 1079 314 1079 443 q 983 82 1079 175 q 699 -21 881 -21 q 436 74 528 -21 q 358 236 375 138 l 299 236 l 299 0 l 76 0 l 76 621 l 299 621 l 299 411 z "},"я":{"ha":725,"x_min":39,"x_max":649,"o":"m 39 0 l 211 217 q 103 271 147 229 q 54 404 54 319 q 110 556 54 497 q 321 621 171 621 l 649 621 l 649 0 l 426 0 l 426 197 l 408 197 l 272 0 l 39 0 m 426 333 l 426 476 l 360 476 q 290 457 311 476 q 271 404 271 438 q 292 351 271 369 q 357 333 314 333 l 426 333 z "},"ё":{"ha":786,"x_min":50,"x_max":735,"o":"m 735 293 l 735 269 l 272 269 q 311 165 272 204 q 403 135 342 135 q 475 151 444 135 q 514 193 501 167 l 726 193 q 651 65 706 118 q 399 -21 563 -21 q 142 74 236 -21 q 50 308 50 165 q 143 549 50 458 q 397 639 236 639 q 636 554 546 639 q 735 293 735 460 m 279 397 l 531 397 q 494 464 521 438 q 403 497 461 497 q 313 464 346 497 q 279 397 285 433 m 163 770 q 146 787 163 770 q 129 853 129 804 q 163 935 129 901 q 246 969 197 969 q 328 935 294 969 q 363 853 363 901 q 328 770 363 804 q 246 736 294 736 q 163 770 197 736 m 458 770 q 441 787 458 770 q 424 853 424 804 q 458 935 424 901 q 540 969 492 969 q 623 935 589 969 q 657 853 657 901 q 623 770 657 804 q 540 736 589 736 q 458 770 492 736 z "},"ђ":{"ha":813,"x_min":-37,"x_max":738,"o":"m 76 0 l 76 675 l -37 675 l -37 825 l 76 825 l 76 1013 l 299 1013 l 299 825 l 526 825 l 526 675 l 299 675 l 299 488 q 368 549 329 526 q 496 579 421 579 q 679 513 613 579 q 727 435 717 475 q 738 339 738 396 l 738 -83 q 681 -261 738 -204 q 507 -319 622 -319 q 385 -304 458 -319 l 385 -132 q 492 -114 457 -149 q 503 -98 499 -107 q 510 -83 508 -89 q 514 -63 513 -76 q 515 -47 515 -50 q 515 -28 515 -43 l 515 -12 l 515 258 q 488 379 515 349 q 417 406 464 406 q 336 379 365 406 q 299 278 299 344 l 299 0 l 76 0 z "},"ѓ":{"ha":532,"x_min":76,"x_max":513,"o":"m 76 0 l 76 621 l 513 621 l 513 439 l 299 439 l 299 0 l 76 0 m 372 1013 l 513 911 l 299 722 l 196 799 l 372 1013 z "},"є":{"ha":661,"x_min":51,"x_max":597,"o":"m 597 207 l 597 21 q 397 -21 499 -21 q 147 63 236 -21 q 51 311 51 151 q 143 550 51 458 q 389 640 236 640 q 597 590 504 640 l 597 407 q 525 456 565 439 q 426 475 481 475 q 329 454 371 475 q 271 386 289 433 l 510 386 l 510 242 l 271 242 q 324 171 283 194 q 431 147 363 147 q 597 207 529 147 z "},"ѕ":{"ha":617,"x_min":38,"x_max":579,"o":"m 38 51 l 117 206 q 206 160 158 175 q 292 144 249 144 q 349 161 331 144 q 360 190 360 172 q 349 218 360 208 q 290 240 338 229 l 232 254 q 124 308 158 271 q 83 415 83 351 q 142 567 83 506 q 364 642 214 642 q 563 601 467 642 l 488 460 q 371 490 421 490 q 319 478 340 490 q 300 447 300 467 q 326 413 300 424 q 361 403 338 408 q 400 394 385 399 l 440 383 q 532 335 500 367 q 579 211 579 290 q 517 57 579 117 q 288 -21 439 -21 q 38 51 156 -21 z "},"і":{"ha":374,"x_min":63,"x_max":313,"o":"m 76 621 l 299 621 l 299 0 l 76 0 l 76 621 m 99 791 q 81 809 99 791 q 63 879 63 828 q 99 967 63 931 q 188 1004 136 1004 q 276 967 239 1004 q 313 879 313 931 q 276 791 313 828 q 188 754 239 754 q 99 791 136 754 z "},"ї":{"ha":486,"x_min":15,"x_max":471,"o":"m 133 621 l 353 621 l 353 0 l 133 0 l 133 621 m 303 981 q 367 1003 329 1003 q 431 981 404 1003 q 471 890 471 946 q 431 800 471 835 q 367 778 404 778 q 303 800 329 778 q 263 890 263 835 q 303 981 263 946 m 56 981 q 119 1003 82 1003 q 183 981 157 1003 q 224 890 224 946 q 183 800 224 835 q 119 778 157 778 q 56 800 82 778 q 15 890 15 835 q 56 981 15 946 z "},"ј":{"ha":374,"x_min":63,"x_max":313,"o":"m 76 621 l 299 621 l 299 -318 l 76 -318 l 76 621 m 99 791 q 81 809 99 791 q 63 879 63 828 q 99 967 63 931 q 188 1004 136 1004 q 276 967 239 1004 q 313 879 313 931 q 276 791 313 828 q 188 754 239 754 q 99 791 136 754 z "},"љ":{"ha":1132,"x_min":14,"x_max":1097,"o":"m 717 414 l 874 414 q 1040 358 982 414 q 1097 210 1097 304 q 1043 61 1097 115 q 874 0 982 0 l 501 0 l 501 439 l 343 439 l 343 261 q 278 51 343 119 q 108 -8 221 -8 q 14 0 58 -8 l 14 161 q 100 185 69 153 q 129 285 129 215 l 129 621 l 717 621 l 717 414 m 717 144 l 801 144 q 860 164 840 144 q 875 208 875 179 q 858 253 875 239 q 799 269 838 269 l 717 269 l 717 144 z "},"њ":{"ha":1136,"x_min":76,"x_max":1101,"o":"m 722 414 l 878 414 q 1046 358 988 414 q 1101 210 1101 304 q 1049 61 1101 114 q 878 0 988 0 l 500 0 l 500 269 l 299 269 l 299 0 l 76 0 l 76 621 l 299 621 l 299 414 l 500 414 l 500 621 l 722 621 l 722 414 m 722 144 l 806 144 q 864 164 846 144 q 879 208 879 179 q 863 253 879 239 q 803 269 842 269 l 722 269 l 722 144 z "},"ћ":{"ha":813,"x_min":-37,"x_max":738,"o":"m 76 0 l 76 675 l -37 675 l -37 825 l 76 825 l 76 1013 l 299 1013 l 299 825 l 526 825 l 526 675 l 299 675 l 299 488 q 368 549 329 526 q 496 579 421 579 q 679 513 613 579 q 727 435 717 475 q 738 339 738 396 l 738 0 l 515 0 l 515 258 q 488 379 515 349 q 417 406 464 406 q 336 379 365 406 q 299 278 299 344 l 299 0 l 76 0 z "},"ќ":{"ha":790,"x_min":76,"x_max":789,"o":"m 76 0 l 76 621 l 299 621 l 299 367 l 486 621 l 765 621 l 508 329 l 789 0 l 501 0 l 299 275 l 299 0 l 76 0 m 469 1013 l 610 911 l 396 722 l 293 799 l 469 1013 z "},"ў":{"ha":839,"x_min":0,"x_max":839,"o":"m 92 -318 l 300 85 l 0 621 l 258 621 l 424 303 l 585 621 l 839 621 l 340 -318 l 92 -318 m 538 939 l 686 886 q 592 758 664 803 q 431 719 531 719 q 269 758 331 719 q 175 886 197 803 l 324 939 q 356 881 335 901 q 431 853 382 853 q 506 881 479 853 q 538 939 526 901 z "},"џ":{"ha":786,"x_min":76,"x_max":710,"o":"m 76 0 l 76 621 l 299 621 l 299 175 l 488 175 l 488 621 l 710 621 l 710 0 l 490 0 l 490 -194 l 296 -194 l 296 0 l 76 0 z "},"Ѣ":{"ha":963,"x_min":14,"x_max":907,"o":"m 199 0 l 199 688 l 14 688 l 14 847 l 199 847 l 199 1006 l 440 1006 l 440 847 l 706 847 l 706 688 l 440 688 l 440 565 l 557 565 q 833 479 746 565 q 907 283 907 406 q 836 89 907 160 q 543 0 747 0 l 199 0 m 440 186 l 533 186 q 638 214 610 186 q 663 283 663 239 q 636 351 663 328 q 533 379 607 379 l 440 379 l 440 186 z "},"ѣ":{"ha":810,"x_min":14,"x_max":775,"o":"m 390 499 l 390 419 l 549 419 q 718 363 660 419 q 775 213 775 308 q 721 63 775 117 q 549 0 658 0 l 168 0 l 168 499 l 14 499 l 14 629 l 168 629 l 168 926 l 390 926 l 390 629 l 624 629 l 624 499 l 390 499 m 390 146 l 475 146 q 535 167 514 146 q 550 211 550 182 q 533 256 550 239 q 472 274 514 274 l 390 274 l 390 146 z "},"Ѳ":{"ha":1133,"x_min":56,"x_max":1078,"o":"m 331 563 l 800 563 q 724 672 775 631 q 565 725 660 725 q 413 675 478 725 q 331 563 351 631 m 811 388 l 319 388 q 393 265 340 314 q 565 201 465 201 q 729 260 657 201 q 811 388 792 310 m 1078 463 q 932 117 1078 257 q 567 -21 788 -21 q 201 117 346 -21 q 56 463 56 257 q 92 650 56 558 q 201 810 129 742 q 567 947 346 947 q 932 810 788 947 q 1041 650 1004 742 q 1078 463 1078 558 z "},"ѳ":{"ha":860,"x_min":51,"x_max":808,"o":"m 296 369 l 563 369 q 521 435 550 408 q 429 465 486 465 q 333 432 367 465 q 296 369 306 407 m 567 272 l 293 272 q 340 197 304 226 q 431 167 378 167 q 522 200 485 167 q 567 272 557 235 m 711 546 q 808 315 808 451 q 711 83 808 179 q 429 -21 604 -21 q 149 83 257 -21 q 51 315 51 179 q 149 546 51 451 q 429 650 257 650 q 711 546 604 650 z "},"Ѵ":{"ha":971,"x_min":0,"x_max":971,"o":"m 0 926 l 263 926 l 485 363 l 710 926 l 971 926 l 576 0 l 389 0 l 0 926 z "},"ѵ":{"ha":796,"x_min":0,"x_max":796,"o":"m 0 621 l 249 621 l 397 303 l 549 621 l 796 621 l 472 0 l 321 0 l 0 621 z "},"Ґ":{"ha":681,"x_min":97,"x_max":653,"o":"m 97 0 l 97 926 l 449 926 l 449 1111 l 653 1111 l 653 722 l 338 722 l 338 0 l 97 0 z "},"ґ":{"ha":603,"x_min":76,"x_max":568,"o":"m 76 621 l 369 621 l 369 815 l 568 815 l 568 439 l 299 439 l 299 0 l 76 0 l 76 621 z "},"Ғ":{"ha":750,"x_min":14,"x_max":694,"o":"m 694 926 l 694 722 l 393 722 l 393 539 l 621 539 l 621 356 l 393 356 l 393 0 l 153 0 l 153 356 l 14 356 l 14 539 l 153 539 l 153 926 l 694 926 z "},"ғ":{"ha":604,"x_min":14,"x_max":571,"o":"m 122 0 l 122 207 l 14 207 l 14 344 l 122 344 l 122 621 l 571 621 l 571 439 l 344 439 l 344 344 l 485 344 l 485 207 l 344 207 l 344 0 l 122 0 z "},"Ҕ":{"ha":881,"x_min":97,"x_max":835,"o":"m 661 926 l 661 722 l 338 722 l 338 539 q 514 571 428 571 q 706 529 632 571 q 835 282 835 457 q 722 43 835 117 q 506 -8 643 -8 q 426 0 476 -8 l 426 183 q 488 175 456 175 q 554 194 529 175 q 585 275 585 218 q 539 357 585 333 q 463 371 513 371 q 338 339 401 371 l 338 0 l 97 0 l 97 926 l 661 926 z "},"ҕ":{"ha":697,"x_min":76,"x_max":664,"o":"m 76 0 l 76 621 l 525 621 l 525 439 l 299 439 l 299 328 l 321 328 q 589 249 507 328 q 664 43 664 176 q 585 -192 664 -108 q 325 -289 500 -285 l 325 -128 q 410 -93 378 -125 q 447 28 447 -56 q 411 142 447 110 q 313 168 381 168 l 299 168 l 299 0 l 76 0 z "},"Җ":{"ha":1353,"x_min":1,"x_max":1339,"o":"m 554 0 l 554 407 l 304 0 l 1 0 l 339 472 l 29 926 l 307 926 l 554 524 l 554 926 l 793 926 l 793 524 l 1040 926 l 1318 926 l 1008 472 l 1215 203 l 1339 203 l 1339 -208 l 1122 -208 l 1122 0 l 1049 0 l 793 407 l 793 0 l 554 0 z "},"җ":{"ha":1126,"x_min":-15,"x_max":1107,"o":"m 431 0 l 431 269 l 254 0 l -15 0 l 226 324 l 19 621 l 272 621 l 431 361 l 431 621 l 650 621 l 650 361 l 817 621 l 1069 621 l 854 324 l 978 175 l 1107 175 l 1107 -181 l 913 -181 l 913 0 l 840 0 l 650 269 l 650 0 l 431 0 z "},"Ҙ":{"ha":829,"x_min":21,"x_max":774,"o":"m 182 672 l 89 849 q 217 914 143 886 q 413 949 311 949 q 661 865 575 949 q 731 690 731 800 q 690 556 731 614 q 604 478 660 511 q 707 419 665 458 q 774 261 774 360 q 694 68 774 144 q 504 -19 619 -4 l 504 -231 l 288 -231 l 288 -12 q 21 114 149 1 l 143 289 q 240 211 188 240 q 365 181 297 181 q 467 204 429 181 q 510 281 510 232 q 468 353 510 326 q 354 375 435 375 l 264 375 l 264 561 l 324 561 q 468 600 429 561 q 492 660 492 624 q 456 725 492 699 q 367 749 422 749 q 258 724 308 749 q 182 672 222 706 z "},"ҙ":{"ha":644,"x_min":25,"x_max":606,"o":"m 121 431 l 47 575 q 150 618 96 601 q 308 643 232 643 q 531 574 461 643 q 575 464 575 529 q 544 369 575 406 q 482 321 522 343 q 568 278 536 311 q 606 179 606 240 q 549 44 606 99 q 404 -15 493 -10 l 404 -194 l 210 -194 l 210 -15 q 25 57 108 0 l 107 211 q 185 164 144 182 q 282 144 231 144 q 350 157 329 144 q 378 197 378 172 q 353 235 378 222 q 281 244 329 244 l 204 244 l 204 389 l 267 389 q 336 399 310 389 q 365 436 365 408 q 339 472 365 461 q 275 483 317 483 q 190 467 233 483 q 121 431 151 453 z "},"Қ":{"ha":958,"x_min":97,"x_max":938,"o":"m 338 926 l 338 544 l 632 926 l 929 926 l 561 488 l 807 203 l 938 203 l 938 -208 l 721 -208 l 721 0 l 660 0 l 338 401 l 338 0 l 97 0 l 97 926 l 338 926 z "},"қ":{"ha":803,"x_min":76,"x_max":783,"o":"m 76 0 l 76 621 l 299 621 l 299 367 l 486 621 l 765 621 l 514 333 l 656 175 l 783 175 l 783 -181 l 589 -181 l 589 0 l 513 0 l 299 275 l 299 0 l 76 0 z "},"Ҝ":{"ha":1119,"x_min":97,"x_max":1118,"o":"m 97 926 l 338 926 l 338 558 l 407 558 l 407 754 l 561 754 l 561 558 l 821 926 l 1101 926 l 768 488 l 1118 0 l 826 0 l 561 415 l 561 221 l 407 221 l 407 415 l 338 415 l 338 0 l 97 0 l 97 926 z "},"ҝ":{"ha":904,"x_min":76,"x_max":890,"o":"m 76 0 l 76 621 l 299 621 l 299 381 l 349 381 l 349 515 l 483 515 l 483 367 l 639 621 l 886 621 l 672 322 l 890 0 l 643 0 l 483 275 l 483 107 l 349 107 l 349 256 l 299 256 l 299 0 l 76 0 z "},"Ҡ":{"ha":1104,"x_min":14,"x_max":1103,"o":"m 478 926 l 478 544 l 772 926 l 1069 926 l 701 488 l 1103 0 l 792 0 l 478 401 l 478 0 l 238 0 l 238 722 l 14 722 l 14 926 l 478 926 z "},"ҡ":{"ha":889,"x_min":7,"x_max":888,"o":"m 175 0 l 175 446 l 7 446 l 7 621 l 397 621 l 397 367 l 586 621 l 864 621 l 607 329 l 888 0 l 601 0 l 397 275 l 397 0 l 175 0 z "},"Ң":{"ha":1064,"x_min":97,"x_max":1043,"o":"m 338 926 l 338 581 l 685 581 l 685 926 l 926 926 l 926 203 l 1043 203 l 1043 -208 l 826 -208 l 826 0 l 685 0 l 685 375 l 338 375 l 338 0 l 97 0 l 97 926 l 338 926 z "},"ң":{"ha":844,"x_min":76,"x_max":831,"o":"m 76 0 l 76 621 l 299 621 l 299 411 l 506 411 l 506 621 l 728 621 l 728 175 l 831 175 l 831 -181 l 636 -181 l 636 0 l 506 0 l 506 236 l 299 236 l 299 0 l 76 0 z "},"Ҥ":{"ha":1213,"x_min":97,"x_max":1179,"o":"m 338 926 l 338 581 l 685 581 l 685 926 l 1179 926 l 1179 722 l 925 722 l 925 0 l 685 0 l 685 375 l 338 375 l 338 0 l 97 0 l 97 926 l 338 926 z "},"ҥ":{"ha":940,"x_min":76,"x_max":921,"o":"m 76 0 l 76 621 l 299 621 l 299 411 l 506 411 l 506 621 l 921 621 l 921 439 l 728 439 l 728 0 l 506 0 l 506 236 l 299 236 l 299 0 l 76 0 z "},"Ҫ":{"ha":819,"x_min":56,"x_max":764,"o":"m 764 306 l 764 21 q 668 -8 722 0 l 668 -231 l 451 -231 l 451 -15 q 185 106 292 -1 q 56 447 56 232 q 197 801 56 657 q 547 946 339 946 q 764 899 649 946 l 764 611 q 556 713 682 713 q 389 651 457 713 q 307 457 307 578 q 328 355 307 406 q 383 272 349 304 q 556 208 453 208 q 764 306 675 208 z "},"ҫ":{"ha":596,"x_min":51,"x_max":546,"o":"m 546 200 l 546 14 q 467 -11 510 -6 l 467 -194 l 272 -194 l 272 -1 q 135 69 192 13 q 51 294 51 153 q 151 546 51 449 q 401 640 250 640 q 546 606 476 640 l 546 419 q 431 460 489 460 q 322 417 365 460 q 279 310 279 374 q 318 206 279 249 q 432 158 363 158 q 546 200 497 158 z "},"Ү":{"ha":889,"x_min":-17,"x_max":906,"o":"m 318 0 l 318 444 l -17 926 l 271 926 l 446 674 l 614 926 l 906 926 l 560 444 l 560 0 l 318 0 z "},"ү":{"ha":718,"x_min":0,"x_max":718,"o":"m 0 621 l 228 621 l 365 282 l 492 621 l 718 621 l 471 60 l 471 -318 l 249 -318 l 249 57 l 0 621 z "},"Ұ":{"ha":889,"x_min":-17,"x_max":906,"o":"m 318 0 l 318 229 l 68 229 l 68 407 l 318 407 l 318 444 l -17 926 l 271 926 l 446 674 l 614 926 l 906 926 l 560 444 l 560 407 l 810 407 l 810 229 l 560 229 l 560 0 l 318 0 z "},"ұ":{"ha":718,"x_min":0,"x_max":718,"o":"m 0 621 l 228 621 l 365 282 l 492 621 l 718 621 l 471 71 l 471 29 l 658 29 l 658 -108 l 471 -108 l 471 -318 l 249 -318 l 249 -108 l 61 -108 l 61 29 l 249 29 l 249 71 l 0 621 z "},"Ҳ":{"ha":993,"x_min":0,"x_max":979,"o":"m 0 0 l 363 494 l 65 926 l 363 926 l 500 686 l 643 926 l 939 926 l 638 494 l 844 203 l 979 203 l 979 -208 l 763 -208 l 763 0 l 696 0 l 499 301 l 290 0 l 0 0 z "},"ҳ":{"ha":904,"x_min":0,"x_max":885,"o":"m 0 0 l 310 338 l 58 621 l 347 621 l 454 493 l 564 621 l 851 621 l 594 338 l 746 175 l 885 175 l 885 -181 l 690 -181 l 690 0 l 611 0 l 453 185 l 293 0 l 0 0 z "},"Ҷ":{"ha":957,"x_min":58,"x_max":936,"o":"m 719 0 l 578 0 l 578 364 q 385 350 486 350 q 132 419 206 350 q 58 639 58 489 l 58 926 l 300 926 l 300 675 q 328 579 300 607 q 442 550 357 550 q 578 560 515 550 l 578 926 l 819 926 l 819 203 l 936 203 l 936 -208 l 719 -208 l 719 0 z "},"ҷ":{"ha":789,"x_min":58,"x_max":775,"o":"m 581 0 l 450 0 l 450 203 q 317 188 385 188 q 115 249 176 188 q 58 425 58 306 l 58 621 l 272 621 l 272 440 q 296 369 272 389 q 368 353 315 353 q 450 363 417 353 l 450 621 l 672 621 l 672 175 l 775 175 l 775 -181 l 581 -181 l 581 0 z "},"Ҹ":{"ha":986,"x_min":58,"x_max":889,"o":"m 647 0 l 647 369 q 561 358 606 358 l 561 175 l 406 175 l 406 353 q 121 446 211 346 q 78 516 93 476 q 61 584 64 556 q 58 656 58 613 l 58 925 l 300 925 l 300 696 q 331 583 300 614 q 406 553 357 556 l 406 754 l 561 754 l 561 553 q 647 561 607 550 l 647 926 l 889 926 l 889 0 l 647 0 z "},"ҹ":{"ha":822,"x_min":58,"x_max":746,"o":"m 524 0 l 524 221 q 467 210 490 213 l 467 93 l 339 93 l 339 194 l 332 194 q 115 256 178 194 q 58 408 58 311 l 58 621 l 267 621 l 267 432 q 288 364 267 385 q 335 349 303 349 l 339 349 l 339 515 l 467 515 l 467 349 q 524 360 497 349 l 524 621 l 746 621 l 746 0 l 524 0 z "},"Һ":{"ha":944,"x_min":97,"x_max":886,"o":"m 339 926 l 339 560 q 538 578 428 578 q 818 500 738 578 q 866 426 850 469 q 884 357 882 382 q 886 290 886 332 l 886 0 l 644 0 l 644 233 q 617 340 644 310 q 479 378 582 378 q 339 365 418 378 l 339 0 l 97 0 l 97 926 l 339 926 z "},"һ":{"ha":813,"x_min":76,"x_max":738,"o":"m 76 0 l 76 1013 l 299 1013 l 299 543 q 368 604 329 582 q 496 635 421 635 q 679 568 613 635 q 727 491 717 531 q 738 394 738 451 l 738 0 l 515 0 l 515 314 q 488 435 515 404 q 417 461 464 461 q 336 435 365 461 q 299 333 299 400 l 299 0 l 76 0 z "},"Ӏ":{"ha":435,"x_min":97,"x_max":338,"o":"m 97 926 l 338 926 l 338 0 l 97 0 l 97 926 z "},"Ӂ":{"ha":1347,"x_min":1,"x_max":1346,"o":"m 554 0 l 554 407 l 304 0 l 1 0 l 339 472 l 29 926 l 307 926 l 554 524 l 554 926 l 793 926 l 793 524 l 1040 926 l 1318 926 l 1008 472 l 1346 0 l 1043 0 l 793 407 l 793 0 l 554 0 m 765 1243 l 926 1182 q 813 1047 893 1090 q 635 1011 747 1011 q 460 1047 526 1011 q 346 1182 379 1090 l 507 1243 q 551 1178 521 1200 q 636 1156 582 1156 q 721 1178 689 1156 q 765 1243 751 1200 z "},"ӂ":{"ha":1136,"x_min":1,"x_max":1135,"o":"m 458 0 l 458 269 l 274 0 l 1 0 l 254 324 l 39 621 l 292 621 l 458 361 l 458 621 l 678 621 l 678 361 l 844 621 l 1097 621 l 882 324 l 1135 0 l 863 0 l 678 269 l 678 0 l 458 0 m 693 939 l 842 886 q 747 758 819 803 q 586 719 686 719 q 425 758 486 719 q 331 886 353 803 l 479 939 q 511 881 490 901 q 586 853 538 853 q 661 881 635 853 q 693 939 682 901 z "},"Ӄ":{"ha":894,"x_min":97,"x_max":888,"o":"m 338 926 l 338 544 l 607 926 l 888 926 l 600 560 q 718 531 658 556 q 815 469 778 507 q 882 296 882 401 q 801 76 882 154 q 475 1 699 -24 l 475 186 q 525 178 497 178 q 600 206 572 178 q 626 279 626 232 q 588 357 626 331 q 483 381 553 381 q 338 350 410 381 l 338 0 l 97 0 l 97 926 l 338 926 z "},"ӄ":{"ha":714,"x_min":76,"x_max":707,"o":"m 76 0 l 76 621 l 299 621 l 299 357 l 464 621 l 707 621 l 483 313 q 607 250 557 300 q 681 44 681 176 q 601 -192 681 -107 q 342 -289 517 -285 l 342 -128 q 426 -93 394 -125 q 464 31 464 -56 q 425 142 464 104 q 314 175 390 175 l 299 175 l 299 0 l 76 0 z "},"Ӈ":{"ha":1024,"x_min":97,"x_max":926,"o":"m 338 926 l 338 582 l 685 582 l 685 926 l 926 926 l 926 -94 q 867 -269 926 -215 q 802 -305 840 -293 q 739 -318 764 -317 q 671 -319 714 -319 q 556 -306 601 -319 l 556 -147 q 603 -156 575 -156 q 667 -136 647 -156 q 685 -71 685 -118 l 685 374 l 338 374 l 338 0 l 97 0 l 97 926 l 338 926 z "},"ӈ":{"ha":804,"x_min":76,"x_max":728,"o":"m 76 0 l 76 621 l 299 621 l 299 411 l 506 411 l 506 621 l 728 621 l 728 -99 q 668 -271 728 -217 q 500 -319 615 -319 q 378 -308 433 -319 l 378 -151 q 419 -160 397 -160 q 488 -139 468 -160 q 506 -62 506 -119 l 506 236 l 299 236 l 299 0 l 76 0 z "},"Ӑ":{"ha":986,"x_min":10,"x_max":976,"o":"m 719 0 l 663 156 l 326 156 l 264 0 l 10 0 l 365 926 l 628 926 l 976 0 l 719 0 m 393 339 l 599 339 l 494 639 l 393 339 m 621 1243 l 782 1182 q 668 1047 749 1090 q 490 1011 603 1011 q 315 1047 382 1011 q 201 1182 235 1090 l 363 1243 q 407 1178 376 1200 q 492 1156 438 1156 q 576 1178 544 1156 q 621 1243 607 1200 z "},"ӑ":{"ha":856,"x_min":51,"x_max":779,"o":"m 557 561 l 557 621 l 779 621 l 779 0 l 557 0 l 557 68 q 364 -21 493 -21 q 140 78 233 -21 q 51 306 51 172 q 147 554 51 458 q 371 642 235 642 q 557 561 485 642 m 421 453 q 324 413 365 453 q 279 311 279 369 q 322 210 279 250 q 422 168 367 168 q 522 211 479 168 q 564 311 564 253 q 521 413 564 371 q 421 453 478 453 m 538 939 l 686 886 q 592 758 664 803 q 431 719 531 719 q 269 758 331 719 q 175 886 197 803 l 324 939 q 356 881 335 901 q 431 853 382 853 q 506 881 479 853 q 538 939 526 901 z "},"Ӓ":{"ha":986,"x_min":10,"x_max":976,"o":"m 719 0 l 663 156 l 326 156 l 264 0 l 10 0 l 365 926 l 628 926 l 976 0 l 719 0 m 393 339 l 599 339 l 494 639 l 393 339 m 650 1004 q 565 1042 600 1004 q 531 1125 531 1081 q 567 1210 531 1169 q 650 1246 603 1246 q 733 1211 699 1246 q 771 1125 771 1174 q 735 1040 771 1079 q 650 1004 699 1004 m 335 1004 q 250 1042 285 1004 q 215 1125 215 1081 q 251 1210 215 1169 q 335 1246 288 1246 q 418 1211 383 1246 q 456 1125 456 1174 q 419 1040 456 1079 q 335 1004 383 1004 z "},"ӓ":{"ha":856,"x_min":51,"x_max":779,"o":"m 557 561 l 557 621 l 779 621 l 779 0 l 557 0 l 557 68 q 364 -21 493 -21 q 140 78 233 -21 q 51 306 51 172 q 147 554 51 458 q 371 642 235 642 q 557 561 485 642 m 421 453 q 324 413 365 453 q 279 311 279 369 q 322 210 279 250 q 422 168 367 168 q 522 211 479 168 q 564 311 564 253 q 521 413 564 371 q 421 453 478 453 m 588 726 q 503 764 538 726 q 468 847 468 803 q 504 932 468 892 q 588 968 540 968 q 671 933 636 968 q 708 847 708 896 q 672 763 708 801 q 588 726 636 726 m 272 726 q 188 764 222 726 q 153 847 153 803 q 189 932 153 892 q 272 968 225 968 q 356 933 321 968 q 393 847 393 896 q 357 763 393 801 q 272 726 321 726 z "},"Ӕ":{"ha":1283,"x_min":10,"x_max":1274,"o":"m 715 0 l 656 163 l 321 163 l 263 0 l 10 0 l 367 926 l 933 926 l 1007 722 l 703 722 l 760 568 l 1064 568 l 1140 364 l 835 364 l 896 204 l 1199 204 l 1274 0 l 715 0 m 388 346 l 590 346 l 492 619 l 388 346 z "},"ӕ":{"ha":1192,"x_min":51,"x_max":1140,"o":"m 1140 275 l 675 275 q 717 168 675 210 q 817 133 751 133 q 886 151 861 133 q 918 192 906 164 l 1131 192 q 1018 35 1100 94 q 814 -21 940 -21 q 649 15 715 -21 q 564 100 592 46 q 453 13 519 43 q 308 -18 383 -18 q 104 54 176 -18 q 51 182 51 107 q 106 317 51 263 q 311 388 176 388 q 469 356 397 388 l 469 371 q 440 447 469 418 q 321 483 404 483 q 149 449 239 483 l 149 614 q 333 643 251 643 q 463 619 411 643 q 564 533 528 590 q 658 613 603 585 q 803 643 719 643 q 1050 554 961 643 q 1140 293 1140 464 l 1140 275 m 681 401 l 936 401 q 899 468 928 442 q 806 503 860 503 q 724 472 758 503 q 681 401 693 443 m 367 264 q 288 244 314 264 q 265 197 265 228 q 292 150 265 168 q 365 129 319 129 q 438 146 404 129 q 475 197 475 165 q 442 247 475 229 q 367 264 411 264 z "},"Ӗ":{"ha":679,"x_min":50,"x_max":631,"o":"m 624 926 l 624 722 l 338 722 l 338 568 l 608 568 l 608 364 l 338 364 l 338 204 l 624 204 l 624 0 l 97 0 l 97 926 l 624 926 m 469 1243 l 631 1182 q 517 1047 597 1090 q 339 1011 451 1011 q 164 1047 231 1011 q 50 1182 83 1090 l 211 1243 q 256 1178 225 1200 q 340 1156 286 1156 q 425 1178 393 1156 q 469 1243 456 1200 z "},"ӗ":{"ha":786,"x_min":50,"x_max":735,"o":"m 735 293 l 735 269 l 272 269 q 311 165 272 204 q 403 135 342 135 q 475 151 444 135 q 514 193 501 167 l 726 193 q 651 65 706 118 q 399 -21 563 -21 q 142 74 236 -21 q 50 308 50 165 q 143 549 50 458 q 397 639 236 639 q 636 554 546 639 q 735 293 735 460 m 279 397 l 531 397 q 494 464 521 438 q 403 497 461 497 q 313 464 346 497 q 279 397 285 433 m 524 939 l 672 886 q 578 758 650 803 q 417 719 517 719 q 256 758 317 719 q 161 886 183 803 l 310 939 q 342 881 321 901 q 417 853 368 853 q 492 881 465 853 q 524 939 513 901 z "},"Ә":{"ha":1067,"x_min":56,"x_max":1011,"o":"m 326 617 l 78 665 q 251 872 132 796 q 526 947 369 947 q 878 813 746 947 q 1011 469 1011 676 q 879 115 1011 250 q 522 -21 747 -21 q 193 101 313 -21 q 56 492 56 242 l 56 517 l 768 517 q 700 651 756 596 q 518 719 631 719 q 401 689 457 719 q 326 617 353 663 m 761 361 l 306 361 q 364 246 315 290 q 524 192 421 192 q 685 242 621 192 q 761 361 744 289 z "},"ә":{"ha":786,"x_min":50,"x_max":735,"o":"m 50 321 l 50 358 l 513 358 q 467 453 508 418 q 372 483 431 483 q 299 464 332 483 q 256 419 272 449 l 67 458 q 185 590 104 543 q 379 639 264 639 q 649 539 551 639 q 735 311 735 450 q 642 69 735 160 q 388 -21 549 -21 q 149 64 239 -21 q 50 321 50 157 m 506 235 l 254 235 q 290 156 258 188 q 383 121 325 121 q 472 156 440 121 q 506 235 501 185 z "},"Ӛ":{"ha":1067,"x_min":56,"x_max":1011,"o":"m 326 617 l 78 665 q 251 872 132 796 q 526 947 369 947 q 878 813 746 947 q 1011 469 1011 676 q 879 115 1011 250 q 522 -21 747 -21 q 193 101 313 -21 q 56 492 56 242 l 56 517 l 768 517 q 700 651 756 596 q 518 719 631 719 q 401 689 457 719 q 326 617 353 663 m 761 361 l 306 361 q 364 246 315 290 q 524 192 421 192 q 685 242 621 192 q 761 361 744 289 m 685 1004 q 600 1042 635 1004 q 565 1125 565 1081 q 601 1210 565 1169 q 685 1246 638 1246 q 768 1211 733 1246 q 806 1125 806 1174 q 769 1040 806 1079 q 685 1004 733 1004 m 369 1004 q 285 1042 319 1004 q 250 1125 250 1081 q 286 1210 250 1169 q 369 1246 322 1246 q 453 1211 418 1246 q 490 1125 490 1174 q 454 1040 490 1079 q 369 1004 418 1004 z "},"ӛ":{"ha":786,"x_min":50,"x_max":735,"o":"m 50 321 l 50 358 l 513 358 q 467 453 508 418 q 372 483 431 483 q 299 464 332 483 q 256 419 272 449 l 67 458 q 185 590 104 543 q 379 639 264 639 q 649 539 551 639 q 735 311 735 450 q 642 69 735 160 q 388 -21 549 -21 q 149 64 239 -21 q 50 321 50 157 m 506 235 l 254 235 q 290 156 258 188 q 383 121 325 121 q 472 156 440 121 q 506 235 501 185 m 556 726 q 471 764 506 726 q 436 847 436 803 q 472 932 436 892 q 556 968 508 968 q 639 933 604 968 q 676 847 676 896 q 640 763 676 801 q 556 726 604 726 m 240 726 q 156 764 190 726 q 121 847 121 803 q 157 932 121 892 q 240 968 193 968 q 324 933 289 968 q 361 847 361 896 q 325 763 361 801 q 240 726 289 726 z "},"Ӝ":{"ha":1347,"x_min":1,"x_max":1346,"o":"m 554 0 l 554 407 l 304 0 l 1 0 l 339 472 l 29 926 l 307 926 l 554 524 l 554 926 l 793 926 l 793 524 l 1040 926 l 1318 926 l 1008 472 l 1346 0 l 1043 0 l 793 407 l 793 0 l 554 0 m 831 1004 q 746 1042 781 1004 q 711 1125 711 1081 q 747 1210 711 1169 q 831 1246 783 1246 q 914 1211 879 1246 q 951 1125 951 1174 q 915 1040 951 1079 q 831 1004 879 1004 m 515 1004 q 431 1042 465 1004 q 396 1125 396 1081 q 432 1210 396 1169 q 515 1246 468 1246 q 599 1211 564 1246 q 636 1125 636 1174 q 600 1040 636 1079 q 515 1004 564 1004 z "},"ӝ":{"ha":1136,"x_min":1,"x_max":1135,"o":"m 458 0 l 458 269 l 274 0 l 1 0 l 254 324 l 39 621 l 292 621 l 458 361 l 458 621 l 678 621 l 678 361 l 844 621 l 1097 621 l 882 324 l 1135 0 l 863 0 l 678 269 l 678 0 l 458 0 m 728 726 q 643 764 678 726 q 608 847 608 803 q 644 932 608 892 q 728 968 681 968 q 811 933 776 968 q 849 847 849 896 q 813 763 849 801 q 728 726 776 726 m 413 726 q 328 764 363 726 q 293 847 293 803 q 329 932 293 892 q 413 968 365 968 q 496 933 461 968 q 533 847 533 896 q 497 763 533 801 q 413 726 461 726 z "},"Ӟ":{"ha":829,"x_min":21,"x_max":774,"o":"m 182 671 l 89 847 q 217 913 143 885 q 413 947 311 947 q 661 864 575 947 q 731 689 731 799 q 690 556 731 613 q 604 482 657 507 l 604 478 q 707 419 665 458 q 774 264 774 356 q 658 43 774 122 q 397 -21 567 -21 q 174 19 271 -21 q 21 117 90 54 l 143 292 q 240 214 185 244 q 365 183 300 183 q 467 207 429 183 q 510 283 510 233 q 468 353 510 326 q 354 375 435 375 l 264 375 l 264 561 l 324 561 q 468 600 429 561 q 492 658 492 624 q 456 724 492 697 q 367 747 422 747 q 258 722 308 747 q 182 671 222 704 m 571 1004 q 486 1042 521 1004 q 451 1125 451 1081 q 488 1210 451 1169 q 571 1246 524 1246 q 654 1211 619 1246 q 692 1125 692 1174 q 656 1040 692 1079 q 571 1004 619 1004 m 256 1004 q 171 1042 206 1004 q 136 1125 136 1081 q 172 1210 136 1169 q 256 1246 208 1246 q 339 1211 304 1246 q 376 1125 376 1174 q 340 1040 376 1079 q 256 1004 304 1004 z "},"ӟ":{"ha":644,"x_min":25,"x_max":606,"o":"m 121 429 l 47 574 q 150 617 96 600 q 308 642 232 642 q 531 572 461 642 q 575 463 575 528 q 544 369 575 406 q 482 324 519 340 l 482 321 q 568 278 533 313 q 606 182 606 240 q 549 47 606 101 q 310 -21 479 -21 q 149 3 224 -21 q 25 60 85 22 l 107 214 q 185 167 144 185 q 282 147 231 147 q 349 158 324 147 q 378 200 378 172 q 353 235 378 224 q 281 244 332 244 l 204 244 l 204 389 l 267 389 q 336 399 310 389 q 365 435 365 408 q 339 471 365 460 q 275 482 317 482 q 190 465 233 482 q 121 429 151 451 m 482 726 q 397 764 432 726 q 363 847 363 803 q 399 932 363 892 q 482 968 435 968 q 565 933 531 968 q 603 847 603 896 q 567 763 603 801 q 482 726 531 726 m 167 726 q 82 764 117 726 q 47 847 47 803 q 83 932 47 892 q 167 968 119 968 q 250 933 215 968 q 288 847 288 896 q 251 763 288 801 q 167 726 215 726 z "},"Ӣ":{"ha":1029,"x_min":97,"x_max":932,"o":"m 97 926 l 339 926 l 339 343 l 686 926 l 932 926 l 932 0 l 690 0 l 690 583 l 343 0 l 97 0 l 97 926 m 253 1040 l 253 1176 l 775 1176 l 775 1040 l 253 1040 z "},"ӣ":{"ha":814,"x_min":76,"x_max":738,"o":"m 76 621 l 299 621 l 299 301 l 544 621 l 738 621 l 738 0 l 515 0 l 515 328 l 272 0 l 76 0 l 76 621 m 128 749 l 128 885 l 678 885 l 678 749 l 128 749 z "},"Ӥ":{"ha":1029,"x_min":97,"x_max":932,"o":"m 97 926 l 339 926 l 339 343 l 686 926 l 932 926 l 932 0 l 690 0 l 690 583 l 343 0 l 97 0 l 97 926 m 671 1004 q 586 1042 621 1004 q 551 1125 551 1081 q 588 1210 551 1169 q 671 1246 624 1246 q 754 1211 719 1246 q 792 1125 792 1174 q 756 1040 792 1079 q 671 1004 719 1004 m 356 1004 q 271 1042 306 1004 q 236 1125 236 1081 q 272 1210 236 1169 q 356 1246 308 1246 q 439 1211 404 1246 q 476 1125 476 1174 q 440 1040 476 1079 q 356 1004 404 1004 z "},"ӥ":{"ha":814,"x_min":76,"x_max":738,"o":"m 76 621 l 299 621 l 299 301 l 544 621 l 738 621 l 738 0 l 515 0 l 515 328 l 272 0 l 76 0 l 76 621 m 565 726 q 481 764 515 726 q 446 847 446 803 q 482 932 446 892 q 565 968 518 968 q 649 933 614 968 q 686 847 686 896 q 650 763 686 801 q 565 726 614 726 m 250 726 q 165 764 200 726 q 131 847 131 803 q 167 932 131 892 q 250 968 203 968 q 333 933 299 968 q 371 847 371 896 q 335 763 371 801 q 250 726 299 726 z "},"Ӧ":{"ha":1133,"x_min":56,"x_max":1078,"o":"m 1078 463 q 932 117 1078 257 q 567 -21 788 -21 q 201 117 346 -21 q 56 463 56 257 q 92 650 56 558 q 201 810 129 742 q 567 947 346 947 q 932 810 788 947 q 1041 650 1004 742 q 1078 463 1078 558 m 567 714 q 379 640 453 714 q 306 458 306 568 q 379 286 306 357 q 567 213 456 213 q 753 285 681 213 q 828 463 828 360 q 753 640 828 568 q 567 714 675 714 m 725 1004 q 640 1042 675 1004 q 606 1125 606 1081 q 642 1210 606 1169 q 725 1246 678 1246 q 808 1211 774 1246 q 846 1125 846 1174 q 810 1040 846 1079 q 725 1004 774 1004 m 410 1004 q 325 1042 360 1004 q 290 1125 290 1081 q 326 1210 290 1169 q 410 1246 363 1246 q 493 1211 458 1246 q 531 1125 531 1174 q 494 1040 531 1079 q 410 1004 458 1004 z "},"ӧ":{"ha":849,"x_min":51,"x_max":797,"o":"m 425 453 q 325 413 368 453 q 282 311 282 372 q 325 213 282 256 q 425 171 367 171 q 524 213 482 171 q 567 311 567 253 q 524 413 567 369 q 425 453 481 453 m 701 539 q 797 311 797 446 q 701 82 797 176 q 424 -21 597 -21 q 147 82 251 -21 q 51 311 51 176 q 147 539 51 446 q 424 642 253 642 q 701 539 593 642 m 586 726 q 501 764 536 726 q 467 847 467 803 q 503 932 467 892 q 586 968 539 968 q 669 933 635 968 q 707 847 707 896 q 671 763 707 801 q 586 726 635 726 m 271 726 q 186 764 221 726 q 151 847 151 803 q 188 932 151 892 q 271 968 224 968 q 354 933 319 968 q 392 847 392 896 q 356 763 392 801 q 271 726 319 726 z "},"Ө":{"ha":1133,"x_min":56,"x_max":1078,"o":"m 331 563 l 800 563 q 724 672 775 631 q 565 725 660 725 q 413 675 478 725 q 331 563 351 631 m 811 388 l 319 388 q 393 265 340 314 q 565 201 465 201 q 729 260 657 201 q 811 388 792 310 m 1078 463 q 932 117 1078 257 q 567 -21 788 -21 q 201 117 346 -21 q 56 463 56 257 q 92 650 56 558 q 201 810 129 742 q 567 947 346 947 q 932 810 788 947 q 1041 650 1004 742 q 1078 463 1078 558 z "},"ө":{"ha":860,"x_min":51,"x_max":808,"o":"m 296 369 l 563 369 q 521 435 550 408 q 429 465 486 465 q 333 432 367 465 q 296 369 306 407 m 567 272 l 293 272 q 340 197 304 226 q 431 167 378 167 q 522 200 485 167 q 567 272 557 235 m 711 546 q 808 315 808 451 q 711 83 808 179 q 429 -21 604 -21 q 149 83 257 -21 q 51 315 51 179 q 149 546 51 451 q 429 650 257 650 q 711 546 604 650 z "},"Ӫ":{"ha":1133,"x_min":56,"x_max":1078,"o":"m 331 563 l 800 563 q 724 672 775 631 q 565 725 660 725 q 413 675 478 725 q 331 563 351 631 m 811 388 l 319 388 q 393 265 340 314 q 565 201 465 201 q 729 260 657 201 q 811 388 792 310 m 1078 463 q 932 117 1078 257 q 567 -21 788 -21 q 201 117 346 -21 q 56 463 56 257 q 92 650 56 558 q 201 810 129 742 q 567 947 346 947 q 932 810 788 947 q 1041 650 1004 742 q 1078 463 1078 558 m 725 1004 q 640 1042 675 1004 q 606 1125 606 1081 q 642 1210 606 1169 q 725 1246 678 1246 q 808 1211 774 1246 q 846 1125 846 1174 q 810 1040 846 1079 q 725 1004 774 1004 m 410 1004 q 325 1042 360 1004 q 290 1125 290 1081 q 326 1210 290 1169 q 410 1246 363 1246 q 493 1211 458 1246 q 531 1125 531 1174 q 494 1040 531 1079 q 410 1004 458 1004 z "},"ӫ":{"ha":860,"x_min":51,"x_max":808,"o":"m 296 369 l 563 369 q 521 435 550 408 q 429 465 486 465 q 333 432 367 465 q 296 369 306 407 m 567 272 l 293 272 q 340 197 304 226 q 431 167 378 167 q 522 200 485 167 q 567 272 557 235 m 711 546 q 808 315 808 451 q 711 83 808 179 q 429 -21 604 -21 q 149 83 257 -21 q 51 315 51 179 q 149 546 51 451 q 429 650 257 650 q 711 546 604 650 m 586 726 q 501 764 536 726 q 467 847 467 803 q 503 932 467 892 q 586 968 539 968 q 669 933 635 968 q 707 847 707 896 q 671 763 707 801 q 586 726 635 726 m 271 726 q 186 764 221 726 q 151 847 151 803 q 188 932 151 892 q 271 968 224 968 q 354 933 319 968 q 392 847 392 896 q 356 763 392 801 q 271 726 319 726 z "},"Ӯ":{"ha":865,"x_min":0,"x_max":857,"o":"m 0 926 l 269 926 l 446 514 l 600 926 l 857 926 l 440 0 l 186 0 l 315 260 l 0 926 m 171 1040 l 171 1176 l 693 1176 l 693 1040 l 171 1040 z "},"ӯ":{"ha":839,"x_min":0,"x_max":839,"o":"m 92 -318 l 300 85 l 0 621 l 258 621 l 424 303 l 585 621 l 839 621 l 340 -318 l 92 -318 m 147 749 l 147 885 l 697 885 l 697 749 l 147 749 z "},"Ӱ":{"ha":865,"x_min":0,"x_max":857,"o":"m 0 926 l 269 926 l 446 514 l 600 926 l 857 926 l 440 0 l 186 0 l 315 260 l 0 926 m 589 1004 q 504 1042 539 1004 q 469 1125 469 1081 q 506 1210 469 1169 q 589 1246 542 1246 q 672 1211 638 1246 q 710 1125 710 1174 q 674 1040 710 1079 q 589 1004 638 1004 m 274 1004 q 189 1042 224 1004 q 154 1125 154 1081 q 190 1210 154 1169 q 274 1246 226 1246 q 357 1211 322 1246 q 394 1125 394 1174 q 358 1040 394 1079 q 274 1004 322 1004 z "},"ӱ":{"ha":839,"x_min":0,"x_max":839,"o":"m 92 -318 l 300 85 l 0 621 l 258 621 l 424 303 l 585 621 l 839 621 l 340 -318 l 92 -318 m 579 726 q 494 764 529 726 q 460 847 460 803 q 496 932 460 892 q 579 968 532 968 q 663 933 628 968 q 700 847 700 896 q 664 763 700 801 q 579 726 628 726 m 264 726 q 179 764 214 726 q 144 847 144 803 q 181 932 144 892 q 264 968 217 968 q 347 933 313 968 q 385 847 385 896 q 349 763 385 801 q 264 726 313 726 z "},"Ӳ":{"ha":865,"x_min":0,"x_max":857,"o":"m 0 926 l 269 926 l 446 514 l 600 926 l 857 926 l 440 0 l 186 0 l 315 260 l 0 926 m 389 1290 l 504 1189 l 314 1000 l 239 1076 l 389 1290 m 629 1290 l 746 1189 l 556 1000 l 479 1076 l 629 1290 z "},"ӳ":{"ha":839,"x_min":0,"x_max":839,"o":"m 92 -318 l 300 85 l 0 621 l 258 621 l 424 303 l 585 621 l 839 621 l 340 -318 l 92 -318 m 374 1013 l 489 911 l 299 722 l 224 799 l 374 1013 m 614 1013 l 731 911 l 540 722 l 464 799 l 614 1013 z "},"Ӵ":{"ha":917,"x_min":58,"x_max":819,"o":"m 578 0 l 578 364 q 385 350 486 350 q 132 419 206 350 q 58 639 58 489 l 58 926 l 300 926 l 300 675 q 328 579 300 607 q 442 550 357 550 q 578 560 515 550 l 578 926 l 819 926 l 819 0 l 578 0 m 588 1004 q 503 1042 538 1004 q 468 1125 468 1081 q 504 1210 468 1169 q 588 1246 540 1246 q 671 1211 636 1246 q 708 1125 708 1174 q 672 1040 708 1079 q 588 1004 636 1004 m 272 1004 q 188 1042 222 1004 q 153 1125 153 1081 q 189 1210 153 1169 q 272 1246 225 1246 q 356 1211 321 1246 q 393 1125 393 1174 q 357 1040 393 1079 q 272 1004 321 1004 z "},"ӵ":{"ha":747,"x_min":58,"x_max":671,"o":"m 449 0 l 449 203 q 313 188 388 188 q 114 249 174 188 q 58 425 58 304 l 58 621 l 272 621 l 272 440 q 296 369 272 389 q 371 353 315 353 q 449 363 417 353 l 449 621 l 671 621 l 671 0 l 449 0 m 532 726 q 447 764 482 726 q 413 847 413 803 q 449 932 413 892 q 532 968 485 968 q 615 933 581 968 q 653 847 653 896 q 617 763 653 801 q 532 726 581 726 m 217 726 q 132 764 167 726 q 97 847 97 803 q 133 932 97 892 q 217 968 169 968 q 300 933 265 968 q 338 847 338 896 q 301 763 338 801 q 217 726 265 726 z "},"Ӹ":{"ha":1221,"x_min":97,"x_max":1124,"o":"m 882 0 l 882 926 l 1124 926 l 1124 0 l 882 0 m 97 0 l 97 926 l 339 926 l 339 565 l 456 565 q 732 479 644 565 q 806 283 806 407 q 736 89 806 160 q 442 0 649 0 l 97 0 m 339 186 l 432 186 q 536 214 508 186 q 561 283 561 239 q 535 351 561 328 q 432 379 506 379 l 339 379 l 339 186 m 767 1004 q 682 1042 717 1004 q 647 1125 647 1081 q 683 1210 647 1169 q 767 1246 719 1246 q 850 1211 815 1246 q 888 1125 888 1174 q 851 1040 888 1079 q 767 1004 815 1004 m 451 1004 q 367 1042 401 1004 q 332 1125 332 1081 q 368 1210 332 1169 q 451 1246 404 1246 q 535 1211 500 1246 q 572 1125 572 1174 q 536 1040 572 1079 q 451 1004 500 1004 z "},"ӹ":{"ha":1031,"x_min":76,"x_max":954,"o":"m 732 0 l 732 621 l 954 621 l 954 0 l 732 0 m 299 414 l 450 414 q 617 358 558 414 q 672 210 672 304 q 619 61 672 114 q 450 0 558 0 l 76 0 l 76 621 l 299 621 l 299 414 m 299 144 l 382 144 q 442 164 422 144 q 457 208 457 179 q 440 253 457 239 q 379 269 419 269 l 299 269 l 299 144 m 675 726 q 590 764 625 726 q 556 847 556 803 q 592 932 556 892 q 675 968 628 968 q 758 933 724 968 q 796 847 796 896 q 760 763 796 801 q 675 726 724 726 m 360 726 q 275 764 310 726 q 240 847 240 803 q 276 932 240 892 q 360 968 313 968 q 443 933 408 968 q 481 847 481 896 q 444 763 481 801 q 360 726 408 726 z "},"‐":{"ha":490,"x_min":69,"x_max":421,"o":"m 69 281 l 69 465 l 421 465 l 421 281 l 69 281 z "},"‑":{"ha":490,"x_min":69,"x_max":421,"o":"m 69 281 l 69 465 l 421 465 l 421 281 l 69 281 z "},"‒":{"ha":797,"x_min":97,"x_max":700,"o":"m 97 382 l 97 565 l 700 565 l 700 382 l 97 382 z "},"–":{"ha":797,"x_min":97,"x_max":700,"o":"m 97 276 l 97 460 l 700 460 l 700 276 l 97 276 z "},"—":{"ha":1260,"x_min":97,"x_max":1163,"o":"m 97 276 l 97 460 l 1163 460 l 1163 276 l 97 276 z "},"―":{"ha":1260,"x_min":97,"x_max":1163,"o":"m 97 276 l 97 460 l 1163 460 l 1163 276 l 97 276 z "},"‘":{"ha":479,"x_min":65,"x_max":433,"o":"m 433 926 l 274 518 l 65 518 l 290 926 l 433 926 z "},"’":{"ha":622,"x_min":46,"x_max":415,"o":"m 46 518 l 206 926 l 415 926 l 189 518 l 46 518 z "},"‚":{"ha":638,"x_min":46,"x_max":431,"o":"m 46 -207 l 221 232 l 431 232 l 189 -207 l 46 -207 z "},"“":{"ha":794,"x_min":65,"x_max":749,"o":"m 749 926 l 589 518 l 379 518 l 606 926 l 749 926 m 433 926 l 274 518 l 65 518 l 290 926 l 433 926 z "},"”":{"ha":938,"x_min":46,"x_max":729,"o":"m 46 518 l 206 926 l 415 926 l 189 518 l 46 518 m 361 518 l 521 926 l 729 926 l 504 518 l 361 518 z "},"„":{"ha":949,"x_min":46,"x_max":740,"o":"m 361 -207 l 532 232 l 740 232 l 504 -207 l 361 -207 m 46 -207 l 217 232 l 425 232 l 189 -207 l 46 -207 z "},"†":{"ha":833,"x_min":97,"x_max":736,"o":"m 314 738 l 314 1013 l 518 1013 l 518 738 l 736 738 l 736 561 l 518 561 l 518 -261 l 314 -261 l 314 561 l 97 561 l 97 738 l 314 738 z "},"‡":{"ha":833,"x_min":99,"x_max":735,"o":"m 315 738 l 315 1013 l 519 1013 l 519 738 l 735 738 l 735 561 l 519 561 l 519 261 l 735 261 l 735 85 l 519 85 l 519 -261 l 315 -261 l 315 85 l 99 85 l 99 261 l 315 261 l 315 561 l 99 561 l 99 738 l 315 738 z "},"•":{"ha":1389,"x_min":503,"x_max":886,"o":"m 503 472 q 558 608 503 553 q 694 667 617 667 q 828 610 771 667 q 886 472 886 551 q 824 331 886 392 q 694 278 768 278 q 564 331 621 278 q 503 472 503 386 z "},"…":{"ha":1263,"x_min":67,"x_max":1196,"o":"m 108 219 q 210 263 151 263 q 311 219 268 263 q 354 118 354 176 q 311 17 354 60 q 210 -26 268 -26 q 107 18 151 -26 q 67 118 67 58 q 108 219 67 178 m 529 219 q 631 263 572 263 q 732 219 689 263 q 775 118 775 176 q 732 17 775 60 q 631 -26 689 -26 q 528 18 572 -26 q 488 118 488 58 q 529 219 488 178 m 950 219 q 1051 263 993 263 q 1153 219 1110 263 q 1196 118 1196 176 q 1153 17 1196 60 q 1051 -26 1110 -26 q 949 18 993 -26 q 908 118 908 58 q 950 219 908 178 z "},"‰":{"ha":1839,"x_min":46,"x_max":1793,"o":"m 297 482 q 104 556 175 482 q 46 706 46 618 q 103 863 46 801 q 297 936 168 936 q 494 863 424 936 q 553 710 553 801 q 493 556 553 618 q 297 482 422 482 m 293 0 l 829 926 l 950 926 l 413 0 l 293 0 m 300 814 q 224 782 253 814 q 196 710 196 751 q 232 631 196 663 q 300 606 260 606 q 374 635 342 606 q 404 710 404 665 q 371 788 404 756 q 300 814 343 814 m 944 321 q 868 289 897 321 q 840 217 840 258 q 876 138 840 169 q 944 113 904 113 q 1018 142 986 113 q 1049 217 1049 172 q 1015 294 1049 264 q 944 321 988 321 m 942 -11 q 749 63 819 -11 q 690 213 690 125 q 747 369 690 308 q 942 443 813 443 q 1139 369 1068 443 q 1197 217 1197 308 q 1138 63 1197 125 q 942 -11 1067 -11 m 1540 321 q 1464 289 1493 321 q 1436 217 1436 258 q 1472 138 1436 169 q 1540 113 1500 113 q 1614 142 1582 113 q 1644 217 1644 172 q 1611 294 1644 264 q 1540 321 1583 321 m 1538 -11 q 1344 63 1415 -11 q 1286 213 1286 125 q 1343 369 1286 308 q 1538 443 1408 443 q 1735 369 1664 443 q 1793 217 1793 308 q 1733 63 1793 125 q 1538 -11 1663 -11 z "},"‹":{"ha":432,"x_min":39,"x_max":376,"o":"m 372 533 l 218 317 l 376 103 l 250 14 l 39 317 l 250 618 l 372 533 z "},"›":{"ha":432,"x_min":53,"x_max":390,"o":"m 53 103 l 211 317 l 57 533 l 179 618 l 390 317 l 179 14 l 53 103 z "},"⁄":{"ha":379,"x_min":-139,"x_max":518,"o":"m -139 0 l 397 926 l 518 926 l -19 0 l -139 0 z "},"€":{"ha":833,"x_min":-28,"x_max":797,"o":"m 756 264 l 756 32 q 517 -21 651 -21 q 224 65 335 -21 q 81 299 115 149 l -28 299 l 22 424 l 64 424 q 64 493 61 456 l -28 493 l 22 618 l 82 618 q 238 856 118 767 q 544 946 360 946 q 797 885 689 946 l 717 682 q 535 735 633 735 q 399 704 453 735 q 324 618 343 675 l 696 618 l 646 493 l 299 493 q 300 424 294 463 l 618 424 l 568 299 l 331 299 q 408 218 353 247 q 540 190 461 190 q 756 264 671 190 z "},"₴":{"ha":833,"x_min":56,"x_max":781,"o":"m 206 692 l 113 868 q 446 947 261 947 q 651 899 585 947 q 726 750 726 842 q 686 639 726 683 l 781 639 l 781 493 l 571 493 l 479 407 l 781 407 l 781 263 l 375 263 q 357 219 357 244 q 382 176 357 190 q 468 161 408 161 q 676 213 579 161 l 772 49 q 408 -29 611 -29 q 189 17 263 -29 q 103 168 103 72 q 136 263 103 219 l 56 263 l 56 407 l 235 407 l 326 493 l 56 493 l 56 639 l 442 639 q 464 689 464 661 q 442 736 464 718 q 369 754 415 754 q 206 692 288 754 z "},"₶":{"ha":833,"x_min":6,"x_max":824,"o":"m 119 926 l 503 926 q 740 847 656 926 q 824 635 824 771 q 742 418 824 493 q 511 340 657 340 l 360 340 l 360 263 l 618 263 l 618 118 l 360 118 l 360 0 l 119 0 l 119 118 l 6 118 l 6 263 l 119 263 l 119 340 l 6 340 l 6 507 l 119 507 l 119 926 m 360 732 l 360 507 l 440 507 q 542 536 510 507 q 572 621 572 564 q 544 699 572 671 q 442 732 511 732 l 360 732 z "},"₷":{"ha":833,"x_min":6,"x_max":824,"o":"m 119 926 l 503 926 q 740 847 656 926 q 824 635 824 771 q 742 418 824 493 q 511 340 657 340 l 360 340 l 360 263 l 618 263 l 618 118 l 360 118 l 360 0 l 119 0 l 119 118 l 6 118 l 6 263 l 119 263 l 119 340 l 6 340 l 6 507 l 119 507 l 119 926 m 360 732 l 360 507 l 440 507 q 542 536 510 507 q 572 621 572 564 q 544 699 572 671 q 442 732 511 732 l 360 732 z "},"₹":{"ha":833,"x_min":6,"x_max":824,"o":"m 119 926 l 503 926 q 740 847 656 926 q 824 635 824 771 q 742 418 824 493 q 511 340 657 340 l 360 340 l 360 263 l 618 263 l 618 118 l 360 118 l 360 0 l 119 0 l 119 118 l 6 118 l 6 263 l 119 263 l 119 340 l 6 340 l 6 507 l 119 507 l 119 926 m 360 732 l 360 507 l 440 507 q 542 536 510 507 q 572 621 572 564 q 544 699 572 671 q 442 732 511 732 l 360 732 z "},"₺":{"ha":833,"x_min":6,"x_max":824,"o":"m 119 926 l 503 926 q 740 847 656 926 q 824 635 824 771 q 742 418 824 493 q 511 340 657 340 l 360 340 l 360 263 l 618 263 l 618 118 l 360 118 l 360 0 l 119 0 l 119 118 l 6 118 l 6 263 l 119 263 l 119 340 l 6 340 l 6 507 l 119 507 l 119 926 m 360 732 l 360 507 l 440 507 q 542 536 510 507 q 572 621 572 564 q 544 699 572 671 q 442 732 511 732 l 360 732 z "},"₻":{"ha":833,"x_min":6,"x_max":824,"o":"m 119 926 l 503 926 q 740 847 656 926 q 824 635 824 771 q 742 418 824 493 q 511 340 657 340 l 360 340 l 360 263 l 618 263 l 618 118 l 360 118 l 360 0 l 119 0 l 119 118 l 6 118 l 6 263 l 119 263 l 119 340 l 6 340 l 6 507 l 119 507 l 119 926 m 360 732 l 360 507 l 440 507 q 542 536 510 507 q 572 621 572 564 q 544 699 572 671 q 442 732 511 732 l 360 732 z "},"₼":{"ha":833,"x_min":6,"x_max":824,"o":"m 119 926 l 503 926 q 740 847 656 926 q 824 635 824 771 q 742 418 824 493 q 511 340 657 340 l 360 340 l 360 263 l 618 263 l 618 118 l 360 118 l 360 0 l 119 0 l 119 118 l 6 118 l 6 263 l 119 263 l 119 340 l 6 340 l 6 507 l 119 507 l 119 926 m 360 732 l 360 507 l 440 507 q 542 536 510 507 q 572 621 572 564 q 544 699 572 671 q 442 732 511 732 l 360 732 z "},"₽":{"ha":833,"x_min":6,"x_max":824,"o":"m 119 926 l 503 926 q 740 847 656 926 q 824 635 824 771 q 742 418 824 493 q 511 340 657 340 l 360 340 l 360 263 l 618 263 l 618 118 l 360 118 l 360 0 l 119 0 l 119 118 l 6 118 l 6 263 l 119 263 l 119 340 l 6 340 l 6 507 l 119 507 l 119 926 m 360 732 l 360 507 l 440 507 q 542 536 510 507 q 572 621 572 564 q 544 699 572 671 q 442 732 511 732 l 360 732 z "},"₾":{"ha":833,"x_min":6,"x_max":824,"o":"m 119 926 l 503 926 q 740 847 656 926 q 824 635 824 771 q 742 418 824 493 q 511 340 657 340 l 360 340 l 360 263 l 618 263 l 618 118 l 360 118 l 360 0 l 119 0 l 119 118 l 6 118 l 6 263 l 119 263 l 119 340 l 6 340 l 6 507 l 119 507 l 119 926 m 360 732 l 360 507 l 440 507 q 542 536 510 507 q 572 621 572 564 q 544 699 572 671 q 442 732 511 732 l 360 732 z "},"₿":{"ha":833,"x_min":6,"x_max":824,"o":"m 119 926 l 503 926 q 740 847 656 926 q 824 635 824 771 q 742 418 824 493 q 511 340 657 340 l 360 340 l 360 263 l 618 263 l 618 118 l 360 118 l 360 0 l 119 0 l 119 118 l 6 118 l 6 263 l 119 263 l 119 340 l 6 340 l 6 507 l 119 507 l 119 926 m 360 732 l 360 507 l 440 507 q 542 536 510 507 q 572 621 572 564 q 544 699 572 671 q 442 732 511 732 l 360 732 z "},"⃀":{"ha":833,"x_min":6,"x_max":824,"o":"m 119 926 l 503 926 q 740 847 656 926 q 824 635 824 771 q 742 418 824 493 q 511 340 657 340 l 360 340 l 360 263 l 618 263 l 618 118 l 360 118 l 360 0 l 119 0 l 119 118 l 6 118 l 6 263 l 119 263 l 119 340 l 6 340 l 6 507 l 119 507 l 119 926 m 360 732 l 360 507 l 440 507 q 542 536 510 507 q 572 621 572 564 q 544 699 572 671 q 442 732 511 732 l 360 732 z "},"⃁":{"ha":833,"x_min":6,"x_max":824,"o":"m 119 926 l 503 926 q 740 847 656 926 q 824 635 824 771 q 742 418 824 493 q 511 340 657 340 l 360 340 l 360 263 l 618 263 l 618 118 l 360 118 l 360 0 l 119 0 l 119 118 l 6 118 l 6 263 l 119 263 l 119 340 l 6 340 l 6 507 l 119 507 l 119 926 m 360 732 l 360 507 l 440 507 q 542 536 510 507 q 572 621 572 564 q 544 699 572 671 q 442 732 511 732 l 360 732 z "},"⃂":{"ha":833,"x_min":6,"x_max":824,"o":"m 119 926 l 503 926 q 740 847 656 926 q 824 635 824 771 q 742 418 824 493 q 511 340 657 340 l 360 340 l 360 263 l 618 263 l 618 118 l 360 118 l 360 0 l 119 0 l 119 118 l 6 118 l 6 263 l 119 263 l 119 340 l 6 340 l 6 507 l 119 507 l 119 926 m 360 732 l 360 507 l 440 507 q 542 536 510 507 q 572 621 572 564 q 544 699 572 671 q 442 732 511 732 l 360 732 z "},"⃃":{"ha":833,"x_min":6,"x_max":824,"o":"m 119 926 l 503 926 q 740 847 656 926 q 824 635 824 771 q 742 418 824 493 q 511 340 657 340 l 360 340 l 360 263 l 618 263 l 618 118 l 360 118 l 360 0 l 119 0 l 119 118 l 6 118 l 6 263 l 119 263 l 119 340 l 6 340 l 6 507 l 119 507 l 119 926 m 360 732 l 360 507 l 440 507 q 542 536 510 507 q 572 621 572 564 q 544 699 572 671 q 442 732 511 732 l 360 732 z "},"⃄":{"ha":833,"x_min":6,"x_max":824,"o":"m 119 926 l 503 926 q 740 847 656 926 q 824 635 824 771 q 742 418 824 493 q 511 340 657 340 l 360 340 l 360 263 l 618 263 l 618 118 l 360 118 l 360 0 l 119 0 l 119 118 l 6 118 l 6 263 l 119 263 l 119 340 l 6 340 l 6 507 l 119 507 l 119 926 m 360 732 l 360 507 l 440 507 q 542 536 510 507 q 572 621 572 564 q 544 699 572 671 q 442 732 511 732 l 360 732 z "},"⃅":{"ha":833,"x_min":6,"x_max":824,"o":"m 119 926 l 503 926 q 740 847 656 926 q 824 635 824 771 q 742 418 824 493 q 511 340 657 340 l 360 340 l 360 263 l 618 263 l 618 118 l 360 118 l 360 0 l 119 0 l 119 118 l 6 118 l 6 263 l 119 263 l 119 340 l 6 340 l 6 507 l 119 507 l 119 926 m 360 732 l 360 507 l 440 507 q 542 536 510 507 q 572 621 572 564 q 544 699 572 671 q 442 732 511 732 l 360 732 z "},"⃆":{"ha":833,"x_min":6,"x_max":824,"o":"m 119 926 l 503 926 q 740 847 656 926 q 824 635 824 771 q 742 418 824 493 q 511 340 657 340 l 360 340 l 360 263 l 618 263 l 618 118 l 360 118 l 360 0 l 119 0 l 119 118 l 6 118 l 6 263 l 119 263 l 119 340 l 6 340 l 6 507 l 119 507 l 119 926 m 360 732 l 360 507 l 440 507 q 542 536 510 507 q 572 621 572 564 q 544 699 572 671 q 442 732 511 732 l 360 732 z "},"⃇":{"ha":833,"x_min":6,"x_max":824,"o":"m 119 926 l 503 926 q 740 847 656 926 q 824 635 824 771 q 742 418 824 493 q 511 340 657 340 l 360 340 l 360 263 l 618 263 l 618 118 l 360 118 l 360 0 l 119 0 l 119 118 l 6 118 l 6 263 l 119 263 l 119 340 l 6 340 l 6 507 l 119 507 l 119 926 m 360 732 l 360 507 l 440 507 q 542 536 510 507 q 572 621 572 564 q 544 699 572 671 q 442 732 511 732 l 360 732 z "},"⃈":{"ha":833,"x_min":6,"x_max":824,"o":"m 119 926 l 503 926 q 740 847 656 926 q 824 635 824 771 q 742 418 824 493 q 511 340 657 340 l 360 340 l 360 263 l 618 263 l 618 118 l 360 118 l 360 0 l 119 0 l 119 118 l 6 118 l 6 263 l 119 263 l 119 340 l 6 340 l 6 507 l 119 507 l 119 926 m 360 732 l 360 507 l 440 507 q 542 536 510 507 q 572 621 572 564 q 544 699 572 671 q 442 732 511 732 l 360 732 z "},"⃉":{"ha":833,"x_min":6,"x_max":824,"o":"m 119 926 l 503 926 q 740 847 656 926 q 824 635 824 771 q 742 418 824 493 q 511 340 657 340 l 360 340 l 360 263 l 618 263 l 618 118 l 360 118 l 360 0 l 119 0 l 119 118 l 6 118 l 6 263 l 119 263 l 119 340 l 6 340 l 6 507 l 119 507 l 119 926 m 360 732 l 360 507 l 440 507 q 542 536 510 507 q 572 621 572 564 q 544 699 572 671 q 442 732 511 732 l 360 732 z "},"⃊":{"ha":833,"x_min":6,"x_max":824,"o":"m 119 926 l 503 926 q 740 847 656 926 q 824 635 824 771 q 742 418 824 493 q 511 340 657 340 l 360 340 l 360 263 l 618 263 l 618 118 l 360 118 l 360 0 l 119 0 l 119 118 l 6 118 l 6 263 l 119 263 l 119 340 l 6 340 l 6 507 l 119 507 l 119 926 m 360 732 l 360 507 l 440 507 q 542 536 510 507 q 572 621 572 564 q 544 699 572 671 q 442 732 511 732 l 360 732 z "},"⃋":{"ha":833,"x_min":6,"x_max":824,"o":"m 119 926 l 503 926 q 740 847 656 926 q 824 635 824 771 q 742 418 824 493 q 511 340 657 340 l 360 340 l 360 263 l 618 263 l 618 118 l 360 118 l 360 0 l 119 0 l 119 118 l 6 118 l 6 263 l 119 263 l 119 340 l 6 340 l 6 507 l 119 507 l 119 926 m 360 732 l 360 507 l 440 507 q 542 536 510 507 q 572 621 572 564 q 544 699 572 671 q 442 732 511 732 l 360 732 z "},"⃌":{"ha":833,"x_min":6,"x_max":824,"o":"m 119 926 l 503 926 q 740 847 656 926 q 824 635 824 771 q 742 418 824 493 q 511 340 657 340 l 360 340 l 360 263 l 618 263 l 618 118 l 360 118 l 360 0 l 119 0 l 119 118 l 6 118 l 6 263 l 119 263 l 119 340 l 6 340 l 6 507 l 119 507 l 119 926 m 360 732 l 360 507 l 440 507 q 542 536 510 507 q 572 621 572 564 q 544 699 572 671 q 442 732 511 732 l 360 732 z "},"⃍":{"ha":833,"x_min":6,"x_max":824,"o":"m 119 926 l 503 926 q 740 847 656 926 q 824 635 824 771 q 742 418 824 493 q 511 340 657 340 l 360 340 l 360 263 l 618 263 l 618 118 l 360 118 l 360 0 l 119 0 l 119 118 l 6 118 l 6 263 l 119 263 l 119 340 l 6 340 l 6 507 l 119 507 l 119 926 m 360 732 l 360 507 l 440 507 q 542 536 510 507 q 572 621 572 564 q 544 699 572 671 q 442 732 511 732 l 360 732 z "},"⃎":{"ha":833,"x_min":6,"x_max":824,"o":"m 119 926 l 503 926 q 740 847 656 926 q 824 635 824 771 q 742 418 824 493 q 511 340 657 340 l 360 340 l 360 263 l 618 263 l 618 118 l 360 118 l 360 0 l 119 0 l 119 118 l 6 118 l 6 263 l 119 263 l 119 340 l 6 340 l 6 507 l 119 507 l 119 926 m 360 732 l 360 507 l 440 507 q 542 536 510 507 q 572 621 572 564 q 544 699 572 671 q 442 732 511 732 l 360 732 z "},"⃏":{"ha":833,"x_min":6,"x_max":824,"o":"m 119 926 l 503 926 q 740 847 656 926 q 824 635 824 771 q 742 418 824 493 q 511 340 657 340 l 360 340 l 360 263 l 618 263 l 618 118 l 360 118 l 360 0 l 119 0 l 119 118 l 6 118 l 6 263 l 119 263 l 119 340 l 6 340 l 6 507 l 119 507 l 119 926 m 360 732 l 360 507 l 440 507 q 542 536 510 507 q 572 621 572 564 q 544 699 572 671 q 442 732 511 732 l 360 732 z "},"₸":{"ha":833,"x_min":99,"x_max":735,"o":"m 735 528 l 535 528 l 535 0 l 294 0 l 294 528 l 99 528 l 99 718 l 735 718 l 735 528 m 735 778 l 99 778 l 99 926 l 735 926 l 735 778 z "},"№":{"ha":1615,"x_min":97,"x_max":1586,"o":"m 338 0 l 97 0 l 97 926 l 338 926 l 781 360 l 781 926 l 1021 926 l 1021 0 l 781 0 l 338 567 l 338 0 m 1342 488 q 1158 554 1228 488 q 1096 706 1096 617 q 1158 858 1096 799 q 1342 926 1226 926 q 1521 861 1454 926 q 1586 706 1586 799 q 1522 553 1586 617 q 1342 488 1457 488 m 1131 267 l 1131 399 l 1551 399 l 1551 267 l 1131 267 m 1340 800 q 1275 776 1300 800 q 1247 706 1247 751 q 1274 636 1247 663 q 1340 611 1299 611 q 1408 636 1383 611 q 1435 706 1435 663 q 1408 776 1435 750 q 1340 800 1385 800 z "},"℗":{"ha":1071,"x_min":64,"x_max":1043,"o":"m 378 735 l 583 735 q 738 685 686 735 q 783 560 783 639 q 738 433 783 479 q 585 383 688 383 l 540 383 l 540 208 l 378 208 l 378 735 m 540 613 l 540 506 l 550 506 q 604 518 588 506 q 624 560 624 532 q 603 600 624 586 q 550 613 586 613 l 540 613 m 1043 463 q 1006 278 1043 369 q 901 121 968 188 q 740 16 833 53 q 553 -21 646 -21 q 368 16 461 -21 q 206 121 275 53 q 101 278 139 188 q 64 463 64 369 q 101 648 64 557 q 206 806 139 739 q 368 910 275 874 q 553 947 461 947 q 740 910 646 947 q 901 806 833 874 q 1006 648 968 739 q 1043 463 1043 557 m 553 860 q 278 746 392 860 q 161 463 161 629 q 278 179 161 296 q 553 65 392 65 q 829 179 715 65 q 946 463 946 296 q 829 746 946 629 q 553 860 715 860 z "},"™":{"ha":1079,"x_min":0,"x_max":1051,"o":"m 367 803 l 254 803 l 254 399 l 111 399 l 111 803 l 0 803 l 0 926 l 367 926 l 367 803 m 536 399 l 393 399 l 481 926 l 624 926 l 724 656 l 831 926 l 974 926 l 1051 399 l 908 399 l 872 685 l 754 399 l 690 399 l 578 685 l 536 399 z "},"∂":{"ha":779,"x_min":47,"x_max":732,"o":"m 121 788 l 144 940 q 377 892 263 932 q 572 775 492 851 q 696 586 660 693 q 732 382 732 479 q 626 79 732 192 q 383 -17 536 -17 q 144 72 238 -17 q 47 307 47 168 q 140 531 47 440 q 342 610 221 610 q 513 554 440 610 q 365 721 465 665 q 121 788 264 778 m 390 153 q 485 190 446 153 q 532 304 532 238 q 483 418 532 376 q 385 451 446 451 q 288 417 326 451 q 239 304 239 372 q 283 194 239 239 q 390 153 325 153 z "},"∏":{"ha":1018,"x_min":56,"x_max":963,"o":"m 56 875 l 56 1042 l 963 1042 l 963 875 l 849 875 l 849 -181 l 963 -181 l 963 -347 l 556 -347 l 556 -181 l 657 -181 l 657 875 l 363 875 l 363 -181 l 461 -181 l 461 -347 l 56 -347 l 56 -181 l 171 -181 l 171 875 l 56 875 z "},"∑":{"ha":926,"x_min":29,"x_max":874,"o":"m 29 1042 l 861 1042 l 861 699 l 699 699 l 681 875 l 243 875 l 590 371 l 243 -181 l 693 -181 l 704 0 l 874 0 l 874 -347 l 29 -347 l 29 -167 l 367 371 l 29 861 l 29 1042 z "},"−":{"ha":694,"x_min":46,"x_max":649,"o":"m 46 389 l 46 556 l 649 556 l 649 389 l 46 389 z "},"∕":{"ha":933,"x_min":-42,"x_max":850,"o":"m -42 -261 l 668 1013 l 850 1013 l 139 -261 l -42 -261 z "},"∙":{"ha":344,"x_min":0,"x_max":344,"o":"m 172 318 q 54 365 103 318 q 0 490 0 417 q 54 617 0 564 q 172 664 104 664 q 288 618 240 664 q 344 490 344 564 q 294 369 344 419 q 172 318 243 318 z "},"√":{"ha":926,"x_min":0,"x_max":926,"o":"m 521 1149 l 926 1149 l 926 986 l 678 986 l 449 0 l 210 0 l 131 376 l 0 376 l 0 538 l 281 538 l 306 421 q 318 319 314 369 q 324 236 324 275 l 324 218 l 339 218 l 340 244 q 363 428 343 299 q 399 621 379 532 l 521 1149 z "},"∞":{"ha":926,"x_min":24,"x_max":903,"o":"m 678 244 q 551 279 606 244 q 468 354 504 308 q 374 275 425 304 q 250 244 322 244 q 85 311 150 244 q 24 468 24 372 q 88 632 24 565 q 249 697 153 697 q 371 664 313 697 q 458 589 419 636 q 561 671 506 644 q 675 697 617 697 q 836 636 771 697 q 903 472 903 575 q 836 306 903 372 q 678 244 776 244 m 647 536 q 590 513 618 536 q 551 471 565 493 q 590 429 569 446 q 647 407 618 407 q 697 426 679 407 q 717 472 717 446 q 699 515 717 497 q 647 536 675 536 m 278 536 q 229 518 250 536 q 210 469 210 499 q 228 426 210 444 q 278 407 246 407 q 335 429 307 407 q 374 471 356 446 q 335 513 360 493 q 278 536 307 536 z "},"∫":{"ha":694,"x_min":64,"x_max":631,"o":"m 440 782 l 440 35 q 435 -142 440 -97 q 375 -283 426 -232 q 189 -347 311 -347 q 64 -333 128 -347 l 97 -172 q 175 -186 135 -186 q 231 -168 211 -186 q 254 -87 254 -146 l 254 660 q 268 875 254 819 q 317 974 282 936 q 503 1042 379 1042 q 631 1028 558 1042 l 597 867 q 519 881 556 881 q 465 863 485 881 q 440 782 440 840 z "},"≈":{"ha":694,"x_min":10,"x_max":685,"o":"m 367 510 l 322 526 q 208 557 243 557 q 149 533 174 557 q 108 472 126 511 l 10 538 l 19 558 q 92 678 61 649 q 221 731 147 731 q 333 704 260 731 l 392 683 q 483 661 453 661 q 546 683 522 661 q 583 733 565 701 l 685 674 l 676 656 q 607 547 646 586 q 475 488 549 488 q 367 510 431 488 m 367 228 l 322 244 q 208 275 243 275 q 149 251 174 275 q 108 190 126 229 l 10 256 l 19 276 q 92 396 61 367 q 221 449 147 449 q 333 422 260 449 l 392 401 q 483 379 453 379 q 546 401 522 379 q 583 451 565 419 l 685 392 l 676 374 q 607 265 646 304 q 475 206 549 206 q 367 228 431 206 z "},"≠":{"ha":694,"x_min":47,"x_max":649,"o":"m 47 654 l 364 654 l 440 804 l 582 804 l 507 654 l 649 654 l 649 493 l 433 493 l 386 400 l 649 400 l 649 238 l 314 238 l 246 106 l 104 106 l 169 238 l 47 238 l 47 400 l 243 400 l 290 493 l 47 493 l 47 654 z "},"≤":{"ha":694,"x_min":46,"x_max":649,"o":"m 46 642 l 649 929 l 649 761 l 236 565 l 649 369 l 649 201 l 46 490 l 46 642 m 46 163 l 649 163 l 649 0 l 46 0 l 46 163 z "},"≥":{"ha":694,"x_min":46,"x_max":649,"o":"m 649 490 l 46 201 l 46 369 l 458 565 l 46 761 l 46 929 l 649 642 l 649 490 m 649 0 l 46 0 l 46 163 l 649 163 l 649 0 z "},"⋅":{"ha":344,"x_min":0,"x_max":344,"o":"m 172 318 q 54 365 103 318 q 0 490 0 417 q 54 617 0 564 q 172 664 104 664 q 288 618 240 664 q 344 490 344 564 q 294 369 344 419 q 172 318 243 318 z "},"◊":{"ha":1138,"x_min":103,"x_max":824,"o":"m 103 464 l 463 963 l 824 464 l 463 -36 l 103 464 m 613 464 l 463 669 l 314 464 l 463 258 l 613 464 z "},"◦":{"ha":694,"x_min":133,"x_max":561,"o":"m 350 504 q 196 567 258 504 q 133 717 133 629 q 196 864 133 803 q 346 926 260 926 q 499 865 435 926 q 561 717 561 806 q 499 567 561 629 q 350 504 436 504 m 276 785 q 261 771 276 785 q 247 715 247 757 q 276 646 247 674 q 347 618 304 618 q 419 646 390 618 q 447 715 447 674 q 419 785 447 757 q 347 813 390 813 q 276 785 304 813 z "},"":{"ha":3,"x_min":-487,"x_max":-171,"o":"m -311 1013 l -171 911 l -385 722 l -487 799 l -311 1013 z "},"":{"ha":3,"x_min":-543,"x_max":-226,"o":"m -367 1290 l -226 1189 l -440 1000 l -543 1076 l -367 1290 z "},"":{"ha":694,"x_min":106,"x_max":589,"o":"m 446 1218 l 589 1218 q 528 1067 588 1126 q 347 1004 465 1004 q 167 1067 229 1004 q 106 1218 107 1126 l 249 1218 q 276 1161 253 1182 q 347 1136 304 1136 q 418 1161 390 1136 q 446 1218 442 1182 z "},"":{"ha":694,"x_min":258,"x_max":547,"o":"m 392 -64 l 547 -125 l 386 -328 l 258 -272 l 392 -64 z "},"":{"ha":694,"x_min":74,"x_max":621,"o":"m 168 1000 l 74 1107 l 346 1311 l 621 1107 l 522 1000 l 346 1136 l 168 1000 z "},"":{"ha":694,"x_min":208,"x_max":489,"o":"m 208 -344 l 281 -69 l 489 -92 l 347 -361 l 208 -344 z "},"":{"ha":694,"x_min":206,"x_max":489,"o":"m 206 653 l 281 944 l 489 908 l 344 628 l 206 653 z "},"":{"ha":694,"x_min":221,"x_max":474,"o":"m 347 1004 q 258 1040 297 1004 q 221 1128 221 1078 q 258 1221 221 1183 q 347 1257 294 1257 q 436 1221 400 1257 q 474 1131 474 1183 q 436 1040 474 1076 q 347 1004 399 1004 z "},"":{"ha":694,"x_min":157,"x_max":538,"o":"m 538 1147 q 501 1056 538 1092 q 347 1004 450 1004 q 193 1056 244 1004 q 157 1147 157 1092 q 193 1240 157 1204 q 347 1292 244 1292 q 501 1240 450 1292 q 538 1147 538 1204 m 407 1183 q 347 1204 386 1204 q 288 1183 308 1204 q 274 1149 274 1169 q 288 1114 274 1128 q 347 1093 308 1093 q 407 1114 386 1093 q 421 1149 421 1128 q 407 1183 421 1169 z "},"":{"ha":694,"x_min":100,"x_max":594,"o":"m 488 1204 l 594 1140 q 533 1044 569 1078 q 433 1004 493 1004 q 353 1025 397 1004 l 311 1046 q 261 1063 278 1063 q 208 1004 222 1063 l 100 1068 q 156 1163 121 1129 q 253 1201 197 1201 q 336 1182 290 1201 l 376 1164 q 436 1143 422 1143 q 488 1204 469 1143 z "},"":{"ha":694,"x_min":249,"x_max":501,"o":"m 501 -124 l 471 -243 q 379 -268 428 -268 q 278 -229 314 -268 q 249 -157 249 -197 q 276 -72 249 -112 q 354 0 308 -26 l 457 0 q 403 -42 419 -25 q 376 -96 376 -68 q 392 -133 376 -118 q 432 -149 407 -149 q 501 -124 467 -149 z "},"":{"ha":986,"x_min":10,"x_max":976,"o":"m 719 0 l 663 156 l 326 156 l 264 0 l 10 0 l 365 926 l 628 926 l 976 0 l 719 0 m 393 339 l 599 339 l 494 639 l 393 339 m 567 1290 l 707 1189 l 493 1000 l 390 1076 l 567 1290 z "},"":{"ha":679,"x_min":97,"x_max":624,"o":"m 624 926 l 624 722 l 338 722 l 338 568 l 608 568 l 608 364 l 338 364 l 338 204 l 624 204 l 624 0 l 97 0 l 97 926 l 624 926 m 413 1290 l 553 1189 l 339 1000 l 236 1076 l 413 1290 z "},"":{"ha":1029,"x_min":97,"x_max":932,"o":"m 97 926 l 339 926 l 339 343 l 686 926 l 932 926 l 932 0 l 690 0 l 690 583 l 343 0 l 97 0 l 97 926 m 588 1290 l 728 1189 l 514 1000 l 411 1076 l 588 1290 z "},"":{"ha":1133,"x_min":56,"x_max":1078,"o":"m 1078 463 q 932 117 1078 257 q 567 -21 788 -21 q 201 117 346 -21 q 56 463 56 257 q 92 650 56 558 q 201 810 129 742 q 567 947 346 947 q 932 810 788 947 q 1041 650 1004 742 q 1078 463 1078 558 m 567 714 q 379 640 453 714 q 306 458 306 568 q 379 286 306 357 q 567 213 456 213 q 753 285 681 213 q 828 463 828 360 q 753 640 828 568 q 567 714 675 714 m 642 1290 l 782 1189 l 568 1000 l 465 1076 l 642 1290 z "},"":{"ha":865,"x_min":0,"x_max":857,"o":"m 0 926 l 269 926 l 446 514 l 600 926 l 857 926 l 440 0 l 186 0 l 315 260 l 0 926 m 506 1290 l 646 1189 l 432 1000 l 329 1076 l 506 1290 z "},"":{"ha":1221,"x_min":97,"x_max":1124,"o":"m 882 0 l 882 926 l 1124 926 l 1124 0 l 882 0 m 97 0 l 97 926 l 339 926 l 339 565 l 456 565 q 732 479 644 565 q 806 283 806 407 q 736 89 806 160 q 442 0 649 0 l 97 0 m 339 186 l 432 186 q 536 214 508 186 q 561 283 561 239 q 535 351 561 328 q 432 379 506 379 l 339 379 l 339 186 m 683 1290 l 824 1189 l 610 1000 l 507 1076 l 683 1290 z "},"":{"ha":858,"x_min":69,"x_max":803,"o":"m 69 49 l 69 289 q 163 224 110 249 q 310 193 225 193 q 474 244 413 193 q 551 379 535 296 l 199 379 l 199 565 l 543 565 q 472 686 528 640 q 310 735 413 735 q 163 700 228 735 q 69 626 107 668 l 69 878 q 342 946 207 946 q 674 815 549 946 q 803 467 803 682 q 664 106 803 249 q 333 -21 542 -21 q 174 3 249 -21 q 69 49 129 17 m 433 1290 l 574 1189 l 360 1000 l 257 1076 l 433 1290 z "},"":{"ha":1508,"x_min":97,"x_max":1453,"o":"m 338 568 l 457 568 q 608 833 486 729 q 939 947 742 947 q 1304 811 1163 947 q 1413 655 1374 746 q 1453 464 1453 564 q 1413 274 1453 365 q 1304 115 1374 182 q 939 -21 1163 -21 q 606 99 739 -21 q 457 382 478 214 l 338 382 l 338 0 l 97 0 l 97 926 l 338 926 l 338 568 m 947 714 q 763 638 839 714 q 689 463 689 564 q 765 285 689 357 q 946 213 839 213 q 1125 286 1049 213 q 1201 467 1201 363 q 1125 642 1201 568 q 947 714 1051 714 m 828 1290 l 968 1189 l 754 1000 l 651 1076 l 828 1290 z "},"":{"ha":858,"x_min":19,"x_max":761,"o":"m 19 0 l 278 349 q 140 421 197 363 q 68 615 68 494 q 144 833 68 753 q 404 926 232 926 l 761 926 l 761 0 l 519 0 l 519 315 l 496 315 l 297 0 l 19 0 m 519 501 l 519 724 l 451 724 q 347 692 382 724 q 315 613 315 663 q 344 533 315 563 q 451 501 378 501 l 519 501 m 503 1290 l 643 1189 l 429 1000 l 326 1076 l 503 1290 z "},"":{"ha":679,"x_min":42,"x_max":675,"o":"m 624 926 l 624 722 l 338 722 l 338 568 l 608 568 l 608 364 l 338 364 l 338 204 l 624 204 l 624 0 l 97 0 l 97 926 l 624 926 m 383 1290 l 489 1211 l 289 1022 l 221 1076 l 383 1290 m 69 1084 q 56 1098 69 1084 q 42 1151 42 1111 q 69 1219 42 1192 q 136 1246 97 1246 q 203 1219 175 1246 q 231 1151 231 1192 q 203 1084 231 1111 q 136 1057 175 1057 q 69 1084 97 1057 m 514 1084 q 500 1098 514 1084 q 486 1151 486 1111 q 514 1219 486 1192 q 581 1246 542 1246 q 647 1219 619 1246 q 675 1151 675 1192 q 647 1084 675 1111 q 581 1057 619 1057 q 514 1084 542 1057 z "},"":{"ha":856,"x_min":51,"x_max":779,"o":"m 557 561 l 557 621 l 779 621 l 779 0 l 557 0 l 557 68 q 364 -21 493 -21 q 140 78 233 -21 q 51 306 51 172 q 147 554 51 458 q 371 642 235 642 q 557 561 485 642 m 421 453 q 324 413 365 453 q 279 311 279 369 q 322 210 279 250 q 422 168 367 168 q 522 211 479 168 q 564 311 564 253 q 521 413 564 371 q 421 453 478 453 m 504 1013 l 644 911 l 431 722 l 328 799 l 504 1013 z "},"":{"ha":786,"x_min":50,"x_max":735,"o":"m 735 293 l 735 269 l 272 269 q 311 165 272 204 q 403 135 342 135 q 475 151 444 135 q 514 193 501 167 l 726 193 q 651 65 706 118 q 399 -21 563 -21 q 142 74 236 -21 q 50 308 50 165 q 143 549 50 458 q 397 639 236 639 q 636 554 546 639 q 735 293 735 460 m 279 397 l 531 397 q 494 464 521 438 q 403 497 461 497 q 313 464 346 497 q 279 397 285 433 m 471 1013 l 611 911 l 397 722 l 294 799 l 471 1013 z "},"":{"ha":814,"x_min":76,"x_max":738,"o":"m 76 621 l 299 621 l 299 301 l 544 621 l 738 621 l 738 0 l 515 0 l 515 328 l 272 0 l 76 0 l 76 621 m 482 1013 l 622 911 l 408 722 l 306 799 l 482 1013 z "},"":{"ha":849,"x_min":51,"x_max":797,"o":"m 425 453 q 325 413 368 453 q 282 311 282 372 q 325 213 282 256 q 425 171 367 171 q 524 213 482 171 q 567 311 567 253 q 524 413 567 369 q 425 453 481 453 m 701 539 q 797 311 797 446 q 701 82 797 176 q 424 -21 597 -21 q 147 82 251 -21 q 51 311 51 176 q 147 539 51 446 q 424 642 253 642 q 701 539 593 642 m 503 1013 l 643 911 l 429 722 l 326 799 l 503 1013 z "},"":{"ha":839,"x_min":0,"x_max":839,"o":"m 92 -318 l 300 85 l 0 621 l 258 621 l 424 303 l 585 621 l 839 621 l 340 -318 l 92 -318 m 496 1013 l 636 911 l 422 722 l 319 799 l 496 1013 z "},"":{"ha":1031,"x_min":76,"x_max":954,"o":"m 732 0 l 732 621 l 954 621 l 954 0 l 732 0 m 299 414 l 450 414 q 617 358 558 414 q 672 210 672 304 q 619 61 672 114 q 450 0 558 0 l 76 0 l 76 621 l 299 621 l 299 414 m 299 144 l 382 144 q 442 164 422 144 q 457 208 457 179 q 440 253 457 239 q 379 269 419 269 l 299 269 l 299 144 m 592 1013 l 732 911 l 518 722 l 415 799 l 592 1013 z "},"":{"ha":661,"x_min":64,"x_max":610,"o":"m 64 21 l 64 207 q 231 147 132 147 q 338 171 299 147 q 390 242 378 194 l 151 242 l 151 386 l 390 386 q 332 454 372 433 q 235 475 293 475 q 136 456 181 475 q 64 407 101 442 l 64 590 q 272 640 156 640 q 518 553 428 640 q 610 314 610 464 q 514 64 610 154 q 264 -21 425 -21 q 64 21 163 -21 m 353 1013 l 493 911 l 279 722 l 176 799 l 353 1013 z "},"":{"ha":1131,"x_min":76,"x_max":1079,"o":"m 707 453 q 607 413 647 453 q 564 311 564 369 q 607 211 564 254 q 707 171 646 171 q 806 211 765 171 q 847 314 847 253 q 808 413 847 369 q 707 453 771 453 m 299 411 l 364 411 q 482 574 396 510 q 706 642 575 642 q 983 539 876 642 q 1079 314 1079 443 q 983 82 1079 175 q 699 -21 881 -21 q 436 74 528 -21 q 358 236 375 138 l 299 236 l 299 0 l 76 0 l 76 621 l 299 621 l 299 411 m 644 1013 l 785 911 l 571 722 l 468 799 l 644 1013 z "},"":{"ha":725,"x_min":39,"x_max":649,"o":"m 39 0 l 211 217 q 103 271 147 229 q 54 404 54 319 q 110 556 54 497 q 321 621 171 621 l 649 621 l 649 0 l 426 0 l 426 197 l 408 197 l 272 0 l 39 0 m 426 333 l 426 476 l 360 476 q 290 457 311 476 q 271 404 271 438 q 292 351 271 369 q 357 333 314 333 l 426 333 m 439 1013 l 579 911 l 365 722 l 263 799 l 439 1013 z "},"":{"ha":786,"x_min":50,"x_max":735,"o":"m 735 293 l 735 269 l 272 269 q 311 165 272 204 q 403 135 342 135 q 475 151 444 135 q 514 193 501 167 l 726 193 q 651 65 706 118 q 399 -21 563 -21 q 142 74 236 -21 q 50 308 50 165 q 143 549 50 458 q 397 639 236 639 q 636 554 546 639 q 735 293 735 460 m 279 397 l 531 397 q 494 464 521 438 q 403 497 461 497 q 313 464 346 497 q 279 397 285 433 m 408 1013 l 513 933 l 315 744 l 249 799 l 408 1013 m 544 802 q 530 816 544 802 q 515 871 515 831 q 544 940 515 911 q 613 968 572 968 q 681 940 653 968 q 710 871 710 911 q 681 802 710 831 q 613 774 653 774 q 544 802 572 774 m 83 802 q 68 816 83 802 q 54 871 54 831 q 83 940 54 911 q 151 968 111 968 q 220 940 192 968 q 249 871 249 911 q 220 802 249 831 q 151 774 192 774 q 83 802 111 774 z "},"":{"ha":917,"x_min":58,"x_max":819,"o":"m 578 926 l 819 926 l 819 -94 q 760 -269 819 -215 q 581 -319 704 -319 q 449 -306 494 -319 l 449 -147 q 496 -156 468 -156 q 560 -136 540 -156 q 578 -71 578 -118 l 578 364 q 385 350 486 350 q 132 419 206 350 q 58 639 58 489 l 58 926 l 300 926 l 300 675 q 328 579 300 607 q 442 550 357 550 q 578 560 515 550 l 578 926 z "},"":{"ha":747,"x_min":58,"x_max":671,"o":"m 449 621 l 671 621 l 671 -99 q 613 -271 671 -217 q 440 -319 560 -319 q 321 -308 376 -319 l 321 -151 q 364 -160 338 -160 q 431 -139 411 -160 q 449 -62 449 -119 l 449 203 q 315 188 388 188 q 114 249 175 188 q 58 425 58 304 l 58 621 l 272 621 l 272 440 q 296 369 272 389 q 368 353 315 353 q 449 363 418 353 l 449 621 z "},"":{"ha":865,"x_min":0,"x_max":857,"o":"m 0 926 l 269 926 l 446 514 l 600 926 l 857 926 l 440 0 l 186 0 l 315 260 l 0 926 m 506 1290 l 646 1189 l 432 1000 l 329 1076 l 506 1290 z "},"":{"ha":839,"x_min":0,"x_max":839,"o":"m 92 -318 l 300 85 l 0 621 l 258 621 l 424 303 l 585 621 l 839 621 l 340 -318 l 92 -318 m 496 1013 l 636 911 l 422 722 l 319 799 l 496 1013 z "},"":{"ha":722,"x_min":21,"x_max":696,"o":"m 313 1076 l 451 1076 l 451 924 q 661 853 553 918 l 569 675 q 414 735 492 735 q 331 710 357 735 q 310 664 310 692 q 329 618 310 638 q 393 583 353 597 l 465 558 q 626 471 574 522 q 696 301 696 403 q 618 92 696 174 q 451 1 556 28 l 451 -156 l 313 -156 l 313 -6 q 156 28 233 -4 q 21 107 82 58 l 121 293 q 217 222 171 244 q 343 190 283 190 q 433 222 401 190 q 458 281 458 247 q 431 333 458 313 q 368 361 411 347 l 286 389 q 133 475 179 425 q 74 636 74 536 q 143 832 74 756 q 313 924 208 904 l 313 1076 z "},"":{"ha":897,"x_min":26,"x_max":851,"o":"m 810 264 l 810 32 q 571 -21 706 -21 q 278 65 389 -21 q 135 299 169 149 l 26 299 l 76 424 l 118 424 q 118 493 115 456 l 26 493 l 76 618 l 136 618 q 292 856 172 767 q 599 946 414 946 q 851 885 743 946 l 771 682 q 589 735 688 735 q 453 704 506 735 q 378 618 397 675 l 750 618 l 700 493 l 353 493 q 354 424 349 463 l 672 424 l 622 299 l 385 299 q 463 218 407 247 q 594 190 515 190 q 810 264 725 190 z "},"":{"ha":556,"x_min":17,"x_max":511,"o":"m 308 917 l 439 917 l 439 790 q 511 769 476 788 l 511 569 q 400 617 464 617 q 296 575 338 617 q 250 464 250 529 q 296 354 250 397 q 400 315 339 315 q 511 363 464 315 l 511 163 q 439 143 474 144 l 439 14 l 308 14 l 308 135 q 110 232 190 151 q 17 465 17 328 q 115 706 17 610 q 308 799 190 781 l 308 917 z "},"":{"ha":867,"x_min":36,"x_max":824,"o":"m 225 350 l 51 350 l 51 483 l 151 483 q 118 631 118 561 q 210 850 118 760 q 482 943 306 943 q 732 857 647 943 q 815 629 815 774 q 814 594 815 604 l 572 594 q 574 628 574 606 q 540 725 574 692 q 464 754 508 754 q 382 719 414 754 q 349 624 349 682 q 383 483 349 563 l 596 483 l 596 350 l 422 350 q 428 281 428 311 q 417 204 428 244 l 482 185 q 613 157 575 157 q 658 174 642 157 q 674 218 674 192 l 824 218 q 746 31 821 100 q 604 -19 692 -19 q 457 8 543 -19 l 404 25 q 281 46 338 46 q 196 0 215 46 l 36 0 q 111 156 54 97 q 233 218 160 207 q 242 276 242 243 q 225 350 242 314 z "},"":{"ha":882,"x_min":29,"x_max":853,"o":"m 313 457 l 86 457 l 86 603 l 225 603 l 29 926 l 303 926 l 442 660 l 575 926 l 853 926 l 649 603 l 794 603 l 794 457 l 557 457 l 549 444 l 549 371 l 794 371 l 794 226 l 549 226 l 549 0 l 321 0 l 321 226 l 86 226 l 86 371 l 321 371 l 321 444 l 313 457 z "},"":{"ha":858,"x_min":14,"x_max":843,"o":"m 297 157 l 357 488 l 251 488 l 274 621 l 382 621 l 411 775 q 492 953 435 894 q 694 1028 565 1028 q 843 993 775 1028 l 807 800 q 721 831 769 831 q 657 806 681 831 q 624 711 638 782 l 607 621 l 742 621 l 717 488 l 582 488 l 518 131 q 397 -169 479 -85 q 133 -261 307 -261 q 14 -249 68 -261 l 50 -46 q 129 -58 85 -58 q 228 -28 194 -58 q 297 157 271 10 z "},"":{"ha":792,"x_min":32,"x_max":757,"o":"m 182 692 l 89 868 q 422 947 238 947 q 628 899 561 947 q 703 750 703 842 q 663 639 703 683 l 757 639 l 757 493 l 547 493 l 456 407 l 757 407 l 757 263 l 351 263 q 333 219 333 244 q 358 176 333 190 q 444 161 385 161 q 653 213 556 161 l 749 49 q 385 -29 588 -29 q 165 17 239 -29 q 79 168 79 72 q 113 263 79 219 l 32 263 l 32 407 l 211 407 l 303 493 l 32 493 l 32 639 l 418 639 q 440 689 440 661 q 418 736 440 718 q 346 754 392 754 q 182 692 264 754 z "},"":{"ha":874,"x_min":33,"x_max":851,"o":"m 147 926 l 531 926 q 768 847 683 926 q 851 635 851 771 q 769 418 851 493 q 539 340 685 340 l 388 340 l 388 263 l 646 263 l 646 118 l 388 118 l 388 0 l 147 0 l 147 118 l 33 118 l 33 263 l 147 263 l 147 340 l 33 340 l 33 507 l 147 507 l 147 926 m 388 732 l 388 507 l 468 507 q 569 536 538 507 q 600 621 600 564 q 572 699 600 671 q 469 732 539 732 l 388 732 z "},"":{"ha":689,"x_min":26,"x_max":663,"o":"m 663 528 l 463 528 l 463 0 l 222 0 l 222 528 l 26 528 l 26 718 l 663 718 l 663 528 m 663 778 l 26 778 l 26 926 l 663 926 l 663 778 z "},"":{"ha":883,"x_min":25,"x_max":858,"o":"m 676 415 l 817 415 l 793 253 l 651 253 l 611 0 l 425 0 l 467 253 l 349 253 l 308 0 l 125 0 l 167 253 l 25 253 l 50 415 l 190 415 l 210 531 l 69 531 l 94 692 l 235 692 l 272 926 l 456 926 l 417 692 l 535 692 l 572 926 l 757 926 l 719 692 l 858 692 l 833 531 l 694 531 l 676 415 m 492 415 l 510 531 l 392 531 l 374 415 l 492 415 z "},"":{"ha":867,"x_min":40,"x_max":826,"o":"m 507 703 q 433 732 475 732 q 360 703 392 732 q 301 601 324 672 q 279 461 279 529 q 301 326 279 399 q 360 219 322 253 q 433 190 392 190 q 507 219 475 190 q 565 323 543 251 q 588 460 588 394 q 565 599 588 525 q 507 703 542 672 m 826 463 q 689 85 826 219 q 433 -21 582 -21 q 178 85 285 -21 q 40 463 40 219 q 178 842 40 707 q 433 947 285 947 q 689 842 582 947 q 826 463 826 707 z "},"":{"ha":826,"x_min":36,"x_max":779,"o":"m 779 204 l 779 0 l 36 0 l 271 246 q 461 481 397 378 q 511 625 511 558 q 483 714 511 683 q 415 742 458 742 q 335 704 364 742 q 301 590 304 665 l 53 590 q 156 847 54 746 q 418 947 256 947 q 679 851 583 947 q 769 624 769 761 q 632 349 769 476 l 476 204 l 779 204 z "},"":{"ha":810,"x_min":31,"x_max":769,"o":"m 31 317 l 276 317 q 314 224 279 258 q 408 188 347 188 q 503 228 465 188 q 531 304 531 260 q 494 386 531 356 q 406 413 463 413 q 365 407 382 413 l 365 569 q 464 593 426 561 q 494 658 494 619 q 469 725 494 700 q 401 750 444 750 q 335 726 358 750 q 303 644 303 697 l 79 644 q 169 857 86 774 q 414 947 256 947 q 644 865 561 947 q 719 686 719 790 q 692 572 719 622 q 621 501 665 524 q 731 417 689 476 q 769 281 769 360 q 688 78 769 160 q 411 -21 589 -21 q 146 75 249 -21 q 31 317 44 168 z "},"":{"ha":836,"x_min":17,"x_max":800,"o":"m 688 926 l 688 360 l 800 360 l 800 175 l 688 175 l 688 0 l 465 0 l 465 175 l 17 175 l 17 329 l 374 926 l 688 926 m 247 360 l 465 360 l 465 738 l 247 360 z "},"":{"ha":768,"x_min":38,"x_max":728,"o":"m 661 926 l 661 722 l 340 722 l 324 619 q 399 626 367 626 q 643 535 554 626 q 728 315 728 450 q 639 83 728 175 q 350 -21 538 -21 q 38 63 169 -21 l 74 288 q 185 213 126 239 q 324 181 253 181 q 444 226 401 181 q 481 321 481 265 q 436 421 481 382 q 269 467 385 467 q 99 428 176 467 l 179 926 l 661 926 z "},"":{"ha":844,"x_min":32,"x_max":813,"o":"m 376 926 l 650 926 l 386 611 q 515 640 451 640 q 725 551 636 640 q 813 331 813 464 q 717 89 813 185 q 421 -21 607 -21 q 117 92 226 -21 q 32 308 32 179 q 169 654 32 472 l 376 926 m 307 217 q 417 169 353 169 q 524 213 481 169 q 567 318 567 256 q 524 415 567 374 q 417 458 479 458 q 313 418 357 458 q 267 322 267 376 q 307 217 267 260 z "},"":{"ha":853,"x_min":47,"x_max":843,"o":"m 47 0 l 469 722 l 83 722 l 83 926 l 843 926 l 313 0 l 47 0 z "},"":{"ha":788,"x_min":39,"x_max":747,"o":"m 557 488 q 676 417 626 467 q 747 253 747 347 q 672 78 747 153 q 392 -21 574 -21 q 115 76 213 -21 q 39 253 39 153 q 58 344 39 297 q 107 419 78 390 q 224 488 153 465 q 140 540 174 507 q 78 688 78 603 q 154 863 78 790 q 401 947 246 947 q 640 858 554 947 q 708 689 708 790 q 651 544 708 601 q 557 488 614 507 m 396 786 q 319 754 349 786 q 292 683 292 724 q 321 617 292 649 q 394 586 350 586 q 463 614 435 586 q 494 685 494 646 q 463 758 494 729 q 396 786 432 786 m 393 390 q 315 358 350 390 q 282 282 282 325 q 314 204 282 236 q 393 171 347 171 q 471 203 439 171 q 504 282 504 236 q 471 358 504 328 q 393 390 438 390 z "},"":{"ha":850,"x_min":32,"x_max":818,"o":"m 471 0 l 199 0 l 461 313 q 338 283 407 283 q 125 368 211 283 q 32 592 32 460 q 125 831 32 733 q 429 947 239 947 q 726 838 617 947 q 818 608 818 743 q 678 268 818 450 l 471 0 m 432 757 q 325 713 369 757 q 279 607 279 667 q 324 507 279 549 q 432 465 368 465 q 536 504 493 465 q 585 610 585 547 q 540 713 585 668 q 432 757 493 757 z "},"":{"ha":490,"x_min":69,"x_max":421,"o":"m 69 381 l 69 565 l 421 565 l 421 381 l 69 381 z "},"":{"ha":797,"x_min":97,"x_max":700,"o":"m 97 382 l 97 565 l 700 565 l 700 382 l 97 382 z "},"":{"ha":1260,"x_min":97,"x_max":1163,"o":"m 97 382 l 97 565 l 1163 565 l 1163 382 l 97 382 z "},"":{"ha":694,"x_min":208,"x_max":489,"o":"m 208 -331 l 281 -69 l 489 -92 l 347 -347 l 208 -331 z "},"":{"ha":694,"x_min":244,"x_max":561,"o":"m 421 1290 l 561 1189 l 347 1000 l 244 1076 l 421 1290 z "},"":{"ha":694,"x_min":74,"x_max":621,"o":"m 346 1000 l 74 1204 l 168 1311 l 346 1175 l 522 1311 l 621 1204 l 346 1000 z "},"":{"ha":694,"x_min":69,"x_max":625,"o":"m 504 1004 q 419 1042 454 1004 q 385 1125 385 1081 q 421 1210 385 1169 q 504 1246 457 1246 q 588 1211 553 1246 q 625 1125 625 1174 q 589 1040 625 1079 q 504 1004 553 1004 m 189 1004 q 104 1042 139 1004 q 69 1125 69 1081 q 106 1210 69 1169 q 189 1246 142 1246 q 272 1211 238 1246 q 310 1125 310 1174 q 274 1040 310 1079 q 189 1004 238 1004 z "},"":{"ha":694,"x_min":133,"x_max":450,"o":"m 347 1000 l 133 1189 l 275 1290 l 450 1076 l 347 1000 z "},"":{"ha":694,"x_min":154,"x_max":661,"o":"m 304 1290 l 419 1189 l 229 1000 l 154 1076 l 304 1290 m 544 1290 l 661 1189 l 471 1000 l 394 1076 l 544 1290 z "},"":{"ha":694,"x_min":86,"x_max":608,"o":"m 86 1040 l 86 1176 l 608 1176 l 608 1040 l 86 1040 z "},"":{"ha":694,"x_min":57,"x_max":638,"o":"m 476 1243 l 638 1182 q 524 1047 604 1090 q 346 1011 458 1011 q 171 1047 238 1011 q 57 1182 90 1090 l 218 1243 q 263 1178 232 1200 q 347 1156 293 1156 q 432 1178 400 1156 q 476 1243 463 1200 z "},"":{"ha":694,"x_min":92,"x_max":603,"o":"m 454 939 l 603 886 q 508 758 581 803 q 347 719 447 719 q 186 758 247 719 q 92 886 114 803 l 240 939 q 272 881 251 901 q 347 853 299 853 q 422 881 396 853 q 454 939 443 901 z "},"":{"ha":457,"x_min":26,"x_max":399,"o":"m 158 0 l 158 722 l 26 722 l 26 926 l 399 926 l 399 0 l 158 0 z "},"":{"ha":944,"x_min":72,"x_max":872,"o":"m 72 276 l 72 460 l 872 460 l 872 276 l 72 276 z "},"ﬁ":{"ha":811,"x_min":15,"x_max":749,"o":"m 471 439 l 315 439 l 315 0 l 93 0 l 93 439 l 15 439 l 15 621 l 93 621 l 93 697 q 178 940 93 858 q 422 1028 267 1028 q 561 1006 493 1028 q 671 944 629 985 q 749 736 749 869 l 749 704 l 526 704 l 526 725 q 499 808 526 781 q 421 836 471 836 q 344 804 374 836 q 315 708 315 774 l 315 621 l 471 621 l 471 439 m 526 621 l 749 621 l 749 0 l 526 0 l 526 621 z "},"ﬂ":{"ha":825,"x_min":15,"x_max":749,"o":"m 471 439 l 315 439 l 315 0 l 93 0 l 93 439 l 15 439 l 15 621 l 93 621 l 93 703 q 178 940 93 857 q 419 1028 268 1028 q 671 936 581 1028 q 734 829 719 886 q 749 694 749 772 l 749 0 l 526 0 l 526 700 q 499 806 526 775 q 422 836 471 836 q 344 804 374 836 q 315 708 315 772 l 315 621 l 471 621 l 471 439 z "}}}
